<svg viewBox="0 0 228 221" fill="none" xmlns="http://www.w3.org/2000/svg">
  <g clip-path="url(#clip0_165_250)">
  <path d="M203.889 178.272C210.287 169.651 212.747 157.507 207.771 147.999C203.104 158.693 194.794 167.397 184.312 172.57C180.262 174.55 175.551 176.332 173.676 180.423C172.51 182.969 172.732 185.975 173.67 188.613C174.607 191.251 176.202 193.599 177.78 195.913L177.863 196.607C187.798 192.499 197.492 186.894 203.889 178.272Z" fill="#E6E6E6"/>
  <path d="M207.559 148.075C207.272 156.948 204.189 165.506 198.748 172.532C197.604 174.066 196.224 175.41 194.66 176.514C193.102 177.542 191.296 178.134 189.431 178.23C187.693 178.354 185.901 178.28 184.224 178.824C183.37 179.114 182.587 179.582 181.927 180.196C181.266 180.81 180.743 181.556 180.392 182.385C179.464 184.429 179.327 186.684 179.27 188.894C179.207 191.348 179.18 193.897 178.02 196.127C177.88 196.398 178.308 196.599 178.449 196.33C180.467 192.449 179.157 187.911 180.36 183.832C180.921 181.929 182.061 180.182 183.966 179.419C185.632 178.752 187.48 178.827 189.241 178.716C191.062 178.649 192.839 178.139 194.417 177.229C196.032 176.207 197.461 174.918 198.643 173.418C201.358 170.083 203.53 166.343 205.08 162.335C206.874 157.771 207.872 152.934 208.031 148.034C208.041 147.73 207.568 147.773 207.559 148.075Z" fill="white"/>
  <path d="M200.634 170.373C201.94 171.123 203.471 171.386 204.953 171.115C206.436 170.843 207.773 170.055 208.727 168.891C208.919 168.655 208.56 168.346 208.367 168.582C207.481 169.668 206.235 170.402 204.855 170.652C203.474 170.902 202.049 170.651 200.837 169.945C200.573 169.792 200.372 170.22 200.634 170.373Z" fill="white"/>
  <path d="M190.32 178.283C189.493 175.323 189.816 172.16 191.223 169.427C191.363 169.156 190.934 168.954 190.794 169.225C189.336 172.072 189.007 175.363 189.874 178.442C189.957 178.735 190.403 178.574 190.32 178.283Z" fill="white"/>
  <path d="M206.246 157.793C205.68 157.607 205.169 157.285 204.759 156.854C204.349 156.423 204.053 155.897 203.897 155.324C203.818 155.029 203.372 155.191 203.45 155.483C203.626 156.116 203.954 156.696 204.406 157.173C204.858 157.65 205.42 158.01 206.043 158.22C206.1 158.245 206.165 158.247 206.223 158.226C206.282 158.205 206.33 158.163 206.359 158.108C206.385 158.051 206.388 157.986 206.367 157.927C206.346 157.868 206.303 157.82 206.246 157.793Z" fill="white"/>
  <path d="M172.158 140.432C172.202 140.617 172.246 140.802 172.288 140.99C172.868 143.482 173.245 146.018 173.414 148.571C173.43 148.768 173.443 148.968 173.454 149.165C173.795 155.32 172.987 161.485 171.072 167.346C170.308 169.678 169.366 171.948 168.257 174.137C166.724 177.161 164.821 180.317 164.392 183.573C164.343 183.912 164.316 184.254 164.31 184.596L177.008 196.654C177.051 196.667 177.091 196.683 177.134 196.696L177.619 197.201C177.684 197.092 177.749 196.978 177.814 196.869C177.852 196.806 177.887 196.74 177.925 196.677C177.95 196.634 177.974 196.591 177.999 196.554C178.007 196.54 178.015 196.525 178.02 196.514C178.045 196.477 178.064 196.439 178.086 196.405C178.452 195.767 178.814 195.125 179.173 194.479C179.176 194.476 179.176 194.476 179.176 194.471C181.895 189.545 184.226 184.349 185.692 178.965C185.736 178.803 185.783 178.638 185.821 178.471C186.469 176.04 186.916 173.561 187.158 171.058C187.287 169.688 187.345 168.311 187.334 166.934C187.298 163.376 186.702 159.847 185.566 156.474C183.301 149.751 178.905 143.825 172.639 140.668C172.479 140.587 172.321 140.509 172.158 140.432Z" fill="#E6E6E6"/>
  <path d="M172.033 140.62C177.161 147.877 179.866 156.561 179.763 165.438C179.775 167.349 179.485 169.251 178.903 171.072C178.279 172.828 177.195 174.385 175.763 175.582C174.451 176.725 172.975 177.742 171.964 179.182C171.458 179.928 171.115 180.771 170.958 181.658C170.801 182.545 170.834 183.454 171.055 184.327C171.547 186.517 172.799 188.399 174.088 190.198C175.519 192.195 177.037 194.246 177.456 196.724C177.507 197.024 177.971 196.928 177.921 196.628C177.19 192.318 173.404 189.482 171.902 185.502C171.201 183.645 171.057 181.566 172.118 179.813C173.046 178.28 174.566 177.23 175.905 176.085C177.319 174.938 178.429 173.463 179.14 171.789C179.813 170.003 180.176 168.116 180.214 166.208C180.368 161.916 179.845 157.625 178.663 153.494C177.34 148.773 175.217 144.311 172.386 140.303C172.21 140.055 171.859 140.373 172.033 140.62Z" fill="white"/>
  <path d="M179.965 162.581C181.461 162.396 182.842 161.687 183.861 160.58C184.881 159.473 185.473 158.041 185.532 156.539C185.543 156.235 185.07 156.204 185.059 156.508C185.007 157.907 184.455 159.241 183.503 160.27C182.552 161.299 181.263 161.954 179.869 162.118C179.566 162.154 179.664 162.617 179.965 162.581Z" fill="white"/>
  <path d="M176.505 175.09C174.058 173.223 172.406 170.505 171.88 167.477C171.828 167.177 171.364 167.273 171.415 167.573C171.969 170.722 173.694 173.548 176.245 175.485C176.488 175.67 176.747 175.274 176.505 175.09Z" fill="white"/>
  <path d="M176.852 149.167C176.288 149.359 175.685 149.408 175.097 149.31C174.51 149.212 173.956 148.97 173.485 148.606C173.245 148.419 172.986 148.815 173.225 149.001C173.747 149.401 174.359 149.668 175.008 149.777C175.657 149.887 176.323 149.836 176.948 149.63C177.008 149.615 177.061 149.578 177.095 149.527C177.129 149.475 177.142 149.412 177.132 149.351C177.119 149.289 177.082 149.236 177.029 149.201C176.977 149.167 176.913 149.155 176.852 149.167Z" fill="white"/>
  <path d="M5.04597 129.985C-0.628003 120.874 -2.09079 108.571 3.64411 99.4973C7.42448 110.535 14.9976 119.884 25.0236 125.889C28.8986 128.191 33.4489 130.348 34.9839 134.578C35.939 137.21 35.4727 140.188 34.3232 142.742C33.1736 145.295 31.3928 147.505 29.6314 149.685L29.492 150.369C19.9253 145.47 10.72 139.097 5.04597 129.985Z" fill="#E6E6E6"/>
  <path d="M3.84949 99.5907C3.41216 108.458 5.78735 117.237 10.6377 124.681C11.6533 126.302 12.9188 127.754 14.3876 128.982C15.8571 130.132 17.6086 130.869 19.4601 131.115C21.1819 131.38 22.9738 131.452 24.601 132.129C25.4288 132.488 26.1712 133.018 26.7794 133.683C27.3876 134.348 27.8479 135.134 28.1302 135.99C28.889 138.102 28.8416 140.361 28.7182 142.568C28.5812 145.018 28.3999 147.562 29.3747 149.879C29.4928 150.159 29.0492 150.326 28.9312 150.045C27.2353 146.014 28.9116 141.597 28.0449 137.434C27.6404 135.492 26.6465 133.659 24.8096 132.744C23.2034 131.944 21.3556 131.868 19.61 131.616C17.8002 131.401 16.0706 130.748 14.5722 129.714C13.0455 128.564 11.726 127.164 10.6704 125.573C8.2364 122.029 6.37631 118.125 5.1582 114.005C3.74184 109.31 3.14116 104.408 3.38215 99.5114C3.39719 99.2084 3.86443 99.2896 3.84949 99.5907Z" fill="white"/>
  <path d="M8.93445 122.376C7.57168 123.018 6.02444 123.156 4.56905 122.765C3.11366 122.375 1.84489 121.481 0.989329 120.243C0.817077 119.992 1.20005 119.714 1.37253 119.965C2.16709 121.119 3.34904 121.951 4.70504 122.312C6.06105 122.673 7.50178 122.539 8.76722 121.934C9.04236 121.802 9.20802 122.245 8.93445 122.376Z" fill="white"/>
  <path d="M18.5694 131.096C19.6346 128.212 19.571 125.035 18.3913 122.196C18.2742 121.915 18.7179 121.748 18.8348 122.029C20.0569 124.985 20.1163 128.293 19.0013 131.291C18.8948 131.576 18.4635 131.38 18.5694 131.096Z" fill="white"/>
  <path d="M4.36617 109.383C4.94536 109.244 5.48091 108.964 5.92471 108.568C6.36852 108.171 6.70668 107.671 6.90884 107.112C7.01164 106.826 7.44282 107.022 7.34069 107.307C7.11446 107.924 6.74032 108.475 6.25095 108.914C5.76159 109.353 5.1719 109.666 4.5334 109.825C4.47448 109.845 4.41012 109.842 4.3534 109.817C4.29667 109.791 4.25185 109.745 4.22803 109.687C4.20619 109.629 4.20844 109.564 4.23431 109.507C4.26017 109.45 4.30756 109.405 4.36617 109.383Z" fill="white"/>
  <path d="M39.7558 94.842C39.6967 95.023 39.6376 95.204 39.5809 95.3882C38.7993 97.8251 38.2174 100.321 37.8411 102.852C37.8088 103.048 37.7792 103.246 37.7526 103.442C36.9112 109.549 37.2139 115.759 38.6453 121.756C39.2172 124.142 39.9702 126.481 40.8978 128.752C42.1791 131.89 43.8186 135.19 43.981 138.47C44.0018 138.812 44.0014 139.155 43.9797 139.497L30.3406 150.486C30.297 150.495 30.2558 150.508 30.2121 150.517L29.6876 150.981C29.6316 150.867 29.5759 150.748 29.5198 150.634C29.4871 150.568 29.4573 150.5 29.4245 150.434C29.4036 150.389 29.3829 150.344 29.3614 150.305C29.3544 150.29 29.3476 150.275 29.3431 150.264C29.3216 150.224 29.3059 150.186 29.287 150.15C28.974 149.484 28.665 148.815 28.3603 148.142C28.3577 148.139 28.3577 148.139 28.3583 148.134C26.0492 143.003 24.1493 137.636 23.1266 132.151C23.0959 131.986 23.0625 131.818 23.038 131.648C22.5908 129.173 22.3471 126.666 22.3095 124.152C22.2933 122.775 22.347 121.398 22.4704 120.027C22.796 116.484 23.6784 113.014 25.0852 109.744C27.8906 103.227 32.7546 97.6774 39.257 95.0388C39.4234 94.9714 39.5869 94.9063 39.7558 94.842Z" fill="#E6E6E6"/>
  <path d="M39.8649 95.0394C34.1629 101.857 30.7596 110.293 30.1384 119.149C29.9708 121.053 30.1051 122.972 30.5365 124.834C31.0155 126.635 31.9693 128.275 33.2987 129.584C34.5137 130.829 35.9011 131.962 36.7914 133.48C37.2356 134.264 37.5086 135.133 37.5926 136.029C37.6766 136.926 37.5697 137.83 37.2788 138.682C36.6094 140.824 35.2081 142.599 33.7772 144.287C32.1885 146.162 30.5086 148.083 29.8882 150.519C29.813 150.814 29.3583 150.68 29.4334 150.386C30.5128 146.148 34.5174 143.629 36.3386 139.784C37.1884 137.99 37.5013 135.93 36.5868 134.096C35.7872 132.493 34.3575 131.323 33.1164 130.073C31.8007 128.815 30.8139 127.256 30.2421 125.53C29.717 123.695 29.5088 121.785 29.6263 119.881C29.8223 115.589 30.6937 111.356 32.2084 107.334C33.9116 102.735 36.3911 98.4607 39.5396 94.6956C39.7346 94.4626 40.0586 94.808 39.8649 95.0394Z" fill="white"/>
  <path d="M30.1702 116.286C28.6945 115.98 27.3758 115.161 26.4496 113.975C25.5234 112.789 25.0499 111.314 25.1139 109.812C25.117 109.751 25.1439 109.693 25.1888 109.651C25.2338 109.609 25.2932 109.587 25.3547 109.588C25.4161 109.589 25.4748 109.613 25.5183 109.657C25.5618 109.7 25.5868 109.759 25.5879 109.82C25.5258 111.218 25.9669 112.593 26.8317 113.695C27.6964 114.798 28.9279 115.556 30.3037 115.832C30.6026 115.892 30.4674 116.346 30.1702 116.286Z" fill="white"/>
  <path d="M32.5992 129.034C35.1903 127.371 37.0579 124.795 37.8296 121.821C37.9058 121.526 38.3605 121.659 38.2844 121.954C37.4755 125.048 35.5266 127.724 32.8264 129.448C32.5689 129.613 32.3431 129.197 32.5992 129.034Z" fill="white"/>
  <path d="M34.3662 103.168C34.9124 103.405 35.5092 103.503 36.1027 103.453C36.6963 103.403 37.2682 103.207 37.767 102.882C38.0222 102.715 38.2478 103.131 37.9942 103.297C37.4414 103.653 36.8096 103.869 36.1539 103.926C35.4982 103.983 34.8386 103.878 34.2327 103.622C34.1735 103.602 34.124 103.561 34.0942 103.507C34.0643 103.452 34.0564 103.389 34.072 103.328C34.09 103.268 34.131 103.218 34.1861 103.188C34.2411 103.158 34.3059 103.151 34.3662 103.168Z" fill="white"/>
  <path d="M110.373 36.9778C118.667 36.9778 125.39 30.2724 125.39 22.0008C125.39 13.7291 118.667 7.02368 110.373 7.02368C102.079 7.02368 95.3562 13.7291 95.3562 22.0008C95.3562 30.2724 102.079 36.9778 110.373 36.9778Z" fill="#FF6584"/>
  <path d="M156.351 21.2192C154.998 19.7935 153.57 18.441 152.072 17.1676C149.146 14.6934 145.908 12.5895 142.297 11.2641C140.938 10.7635 139.534 10.3948 138.104 10.1631C137.932 10.1354 137.763 10.1076 137.591 10.085C137.578 10.0837 137.566 10.0837 137.553 10.085C137.527 10.0775 137.5 10.0724 137.472 10.0698C137.121 10.0245 136.77 9.98921 136.416 9.96402C134.511 9.83774 132.599 10.0095 130.747 10.473C129.673 10.7433 128.625 11.1075 127.615 11.5615C126.603 12.0556 125.621 12.61 124.676 13.2219C124.169 13.5293 123.646 13.8111 123.11 14.066C121.545 14.8055 119.888 15.3342 118.184 15.6382C117.033 15.8442 115.867 15.9588 114.697 15.9809C113.682 16.001 112.724 16.0363 111.762 16.4016C110.735 16.7866 109.812 17.4059 109.068 18.21C108.323 19.0141 107.778 19.9808 107.475 21.0327C107.451 21.1261 107.458 21.2247 107.494 21.314C107.53 21.4033 107.594 21.4787 107.677 21.5291C107.937 21.7155 108.19 21.9272 108.465 22.0935C108.708 22.2041 108.967 22.2747 109.233 22.3026C109.668 22.3933 110.103 22.4815 110.539 22.5672C112.143 22.8846 113.754 23.166 115.372 23.4112C118.626 23.9025 121.898 24.2486 125.189 24.4493C125.209 24.4522 125.23 24.4539 125.25 24.4543C128.968 24.6781 132.695 24.7143 136.416 24.5627C136.98 24.54 137.54 24.5123 138.104 24.4795C140.451 24.3485 142.792 24.1419 145.127 23.8597C147.287 23.5977 149.438 23.2726 151.582 22.8846C153.113 22.6075 154.638 22.2984 156.157 21.9574C156.231 21.9356 156.297 21.8952 156.351 21.8402C156.405 21.7851 156.443 21.7171 156.463 21.6429C156.482 21.5687 156.482 21.4907 156.463 21.4165C156.443 21.3423 156.405 21.2743 156.351 21.2192Z" fill="#E6E6E6"/>
  <path d="M125.139 41.1896C122.965 38.8701 120.57 36.7673 117.987 34.9107C117.131 34.3111 116.249 33.7467 115.342 33.2301C114.23 32.59 113.075 32.0268 111.886 31.5445C111.621 31.4362 111.353 31.3329 111.085 31.2346C109.564 30.6726 107.986 30.2772 106.379 30.0554C106.366 30.0529 106.353 30.0554 106.341 30.0529C106.315 30.0479 106.288 30.0428 106.262 30.0378C105.483 29.937 104.698 29.8891 103.913 29.8942C103.349 29.8942 102.784 29.9244 102.223 29.9798C101.317 30.0689 100.418 30.2238 99.5347 30.4434C99.0977 30.5518 98.6632 30.6778 98.2362 30.8214C97.6135 31.0258 97.0021 31.263 96.4046 31.5319C96.3945 31.537 96.387 31.5395 96.3769 31.5445C95.3739 32.0339 94.4019 32.5842 93.4666 33.1924C93.4463 33.205 93.4236 33.2175 93.4034 33.2301C92.3409 33.864 91.2169 34.3891 90.0484 34.7973C89.0455 35.1472 88.0167 35.4184 86.9714 35.6087C85.8203 35.8152 84.6545 35.9289 83.4851 35.9488C82.4695 35.969 81.512 36.0042 80.552 36.3721C79.5245 36.757 78.6014 37.3762 77.8566 38.1803C77.1118 38.9844 76.5658 39.9511 76.2624 41.0032C76.239 41.0966 76.2459 41.195 76.2822 41.2842C76.3186 41.3734 76.3824 41.4488 76.4645 41.4995C76.7247 41.686 76.9798 41.8951 77.2527 42.0614C77.4954 42.1729 77.7549 42.2435 78.0207 42.2705C78.4552 42.3612 78.8897 42.4519 79.3268 42.5376C80.931 42.8551 82.5428 43.1356 84.1621 43.3792C86.3828 43.7143 88.6127 43.9822 90.8518 44.1829C91.9129 44.2812 92.9748 44.3618 94.0375 44.4248C96.7634 44.5886 99.4918 44.6524 102.223 44.6163C102.786 44.6087 103.35 44.5961 103.913 44.5785C107.258 44.4802 110.592 44.2299 113.917 43.8276C117.623 43.3805 121.303 42.7456 124.944 41.9253C125.018 41.9038 125.085 41.8637 125.138 41.8088C125.192 41.754 125.23 41.6863 125.25 41.6122C125.269 41.5382 125.27 41.4604 125.25 41.3864C125.231 41.3123 125.192 41.2446 125.139 41.1896Z" fill="#E6E6E6"/>
  <path d="M87.708 0.994377L100.938 183.329L74.4785 185.671V3.31419C77.6314 0.857947 82.1572 0.473662 87.708 0.994377Z" fill="#CCCCCC"/>
  <path d="M153.011 0.994377L139.782 183.329L166.241 185.671V3.31419C163.088 0.857947 158.562 0.473662 153.011 0.994377Z" fill="#CCCCCC"/>
  <path d="M166.863 3.39375C166.042 1.38605 164.296 0 162.278 0H78.1592C75.3525 0 73.0712 2.68585 73.0712 5.99037V187.216C73.0467 188.892 73.6752 190.513 74.8245 191.737C75.4258 192.367 76.1872 192.822 77.0275 193.054C77.396 193.156 77.7768 193.207 78.1592 193.206H162.278C162.66 193.207 163.041 193.156 163.41 193.054C165.673 192.448 167.366 190.062 167.366 187.216V5.99037C167.368 5.10055 167.197 4.21873 166.863 3.39375ZM165.678 187.216C165.678 189.423 164.152 191.219 162.278 191.219H78.1592C76.6056 191.219 75.2894 189.985 74.8877 188.304C74.8018 187.948 74.7586 187.582 74.7588 187.216V5.99037C74.7588 3.7834 76.2847 1.98986 78.1592 1.98986H162.278C162.623 1.98959 162.965 2.05104 163.288 2.1713C164.67 2.67694 165.678 4.19684 165.678 5.99037V187.216Z" fill="#CCCCCC"/>
  <path d="M166.522 55.0862H73.9155V56.7706H166.522V55.0862Z" fill="#CCCCCC"/>
  <path d="M166.522 20.3154H73.9155V21.9998H166.522V20.3154Z" fill="#CCCCCC"/>
  <path d="M166.522 83.1594H73.9155V84.8438H166.522V83.1594Z" fill="#CCCCCC"/>
  <path d="M103.967 0.755859H102.278V107.022H103.967V0.755859Z" fill="#CCCCCC"/>
  <path d="M138.159 0.755859H136.47V107.022H138.159V0.755859Z" fill="#CCCCCC"/>
  <path d="M177.077 182.679H66.1746C64.1599 182.682 62.2284 183.481 60.8038 184.902C59.3792 186.322 58.5778 188.249 58.5754 190.258C58.5744 191.224 58.7606 192.182 59.1237 193.078C59.6878 194.483 60.6609 195.687 61.9176 196.536C63.1742 197.385 64.6569 197.839 66.1746 197.84H177.077C178.404 197.839 179.707 197.493 180.858 196.834C182.008 196.175 182.966 195.228 183.636 194.086C183.826 193.763 183.992 193.426 184.131 193.078C184.494 192.182 184.68 191.224 184.679 190.258C184.676 188.249 183.874 186.322 182.449 184.901C181.024 183.481 179.092 182.681 177.077 182.679Z" fill="#CCCCCC"/>
  <path d="M166.522 103.092H74.4785V108.706H166.522V103.092Z" fill="#CCCCCC"/>
  <path d="M119.656 101.407H121.345C122.166 101.407 122.953 101.733 123.534 102.312C124.115 102.891 124.441 103.676 124.441 104.495H116.56C116.56 104.09 116.64 103.688 116.795 103.314C116.951 102.939 117.179 102.598 117.466 102.312C117.754 102.025 118.095 101.797 118.471 101.642C118.847 101.487 119.249 101.407 119.656 101.407Z" fill="#CCCCCC"/>
  <path d="M122.124 118.926C131.758 118.926 139.568 111.137 139.568 101.529C139.568 91.9207 131.758 84.1316 122.124 84.1316C112.49 84.1316 104.68 91.9207 104.68 101.529C104.68 111.137 112.49 118.926 122.124 118.926Z" fill="#FFB8B8"/>
  <path d="M102.665 84.7924C102.797 82.7945 104.122 80.7501 108.331 79.6818C108.331 79.6818 115.554 70.4699 125.369 75.3007C125.369 75.3007 130.127 74.4843 133.656 79.4082C133.656 79.4082 137.154 77.3505 138.63 80.9978C138.63 80.9978 142.733 88.4377 141.223 96.0263C139.712 103.615 138.939 104.562 138.939 104.562C138.939 104.562 140.864 88.865 129.775 89.9535C118.685 91.0419 109.757 87.1524 107.245 95.6684C105.16 102.74 105.423 106.412 105.423 106.412C105.423 106.412 98.4494 99.358 100.82 93.8032C102.033 90.9622 102.462 87.8734 102.665 84.7924Z" fill="#2F2E41"/>
  <path d="M74.688 196.605H171.173C170.529 189.265 170.107 161.206 170.107 159.359C170.107 151.214 163.424 142.325 163.424 142.325L161.032 141.006L141.057 134.79L135.887 128.093C135.346 127.39 134.648 126.821 133.849 126.432C133.05 126.043 132.172 125.844 131.283 125.851L114.953 125.973C113.516 125.984 112.135 126.53 111.08 127.504L100.968 136.86L86.1367 143.923L86.1115 143.898L85.9566 144.013L83.7554 145.594L82.3397 146.615C82.3397 146.615 78.6255 151.059 75.6571 164.389C75.2104 166.394 74.8969 192.347 74.688 196.605Z" fill="#3C5E92"/>
  <path d="M193.506 193.078C193.273 193.289 193.038 193.498 192.803 193.708C191.914 194.496 191.012 195.271 190.098 196.033C188.716 197.182 187.305 198.297 185.866 199.377H55.9783C53.3332 197.396 50.7859 195.297 48.3362 193.078H193.506Z" fill="#CCCCCC"/>
  <path d="M145.895 194.589H98.1477L99.1581 189.802H144.884L145.895 194.589Z" fill="#2F2E41"/>
  <path d="M189.092 173.928H176.668C176.387 173.928 176.11 173.988 175.856 174.106C175.601 174.223 175.376 174.395 175.195 174.609C175.022 174.575 174.846 174.559 174.67 174.558C174.282 174.558 173.899 174.634 173.541 174.781C173.183 174.929 172.858 175.145 172.584 175.418C172.31 175.691 172.093 176.015 171.944 176.372C171.796 176.729 171.72 177.111 171.72 177.498C171.72 177.884 171.796 178.266 171.944 178.623C172.093 178.98 172.31 179.304 172.584 179.577C172.858 179.85 173.183 180.066 173.541 180.214C173.899 180.361 174.282 180.437 174.67 180.437C175.114 180.437 175.554 180.335 175.953 180.139L176.16 182.679L176.984 192.717C177.023 192.843 177.075 192.963 177.14 193.078C177.307 193.382 177.552 193.637 177.852 193.814C178.151 193.992 178.492 194.085 178.84 194.085H186.92C187.268 194.085 187.61 193.991 187.909 193.814C188.209 193.637 188.455 193.382 188.622 193.078C188.686 192.963 188.737 192.842 188.776 192.717L190.949 176.435C191.038 176.146 191.058 175.839 191.007 175.54C190.956 175.241 190.835 174.959 190.655 174.715C190.474 174.471 190.239 174.273 189.967 174.136C189.696 174 189.396 173.928 189.092 173.928ZM174.67 179.598C174.111 179.597 173.577 179.375 173.182 178.982C172.788 178.588 172.566 178.054 172.566 177.498C172.566 176.941 172.788 176.407 173.182 176.013C173.577 175.62 174.111 175.398 174.67 175.397C174.707 175.397 174.743 175.407 174.781 175.41C174.698 175.748 174.708 176.103 174.811 176.435L175.7 179.318C175.387 179.499 175.032 179.596 174.67 179.598Z" fill="#3F3D56"/>
  <path d="M161.03 120.656H82.3808C81.7051 120.657 81.0574 120.926 80.5796 121.402C80.1018 121.879 79.8329 122.525 79.8318 123.199V176.131C79.8324 176.805 80.1012 177.451 80.5791 177.928C81.057 178.404 81.705 178.672 82.3808 178.673H161.03C161.706 178.672 162.354 178.404 162.832 177.928C163.31 177.451 163.578 176.805 163.579 176.131V123.199C163.578 122.525 163.309 121.879 162.831 121.402C162.353 120.926 161.706 120.657 161.03 120.656Z" fill="#3F3D56"/>
  <path d="M130.563 163.069H112.164C111.903 163.069 111.654 163.173 111.47 163.357C111.286 163.54 111.183 163.789 111.183 164.049V193.037H131.545V164.049C131.546 163.92 131.52 163.793 131.471 163.674C131.421 163.555 131.349 163.447 131.258 163.356C131.166 163.265 131.058 163.193 130.939 163.143C130.82 163.094 130.692 163.069 130.563 163.069ZM121.425 179.54C120.85 179.537 120.299 179.308 119.892 178.902C119.485 178.496 119.255 177.947 119.252 177.373V174.029C119.253 173.455 119.482 172.904 119.89 172.499C120.297 172.093 120.849 171.865 121.425 171.865C122.001 171.865 122.553 172.093 122.96 172.499C123.368 172.904 123.597 173.455 123.598 174.029V177.373C123.595 177.947 123.365 178.496 122.958 178.902C122.551 179.308 122 179.537 121.425 179.54Z" fill="#2F2E41"/>
  <path d="M111.12 192.11V194.907C111.12 195.052 111.178 195.191 111.281 195.293C111.384 195.396 111.523 195.453 111.668 195.454H131.06C131.205 195.453 131.344 195.395 131.447 195.293C131.55 195.19 131.608 195.052 131.609 194.907V192.11H111.12Z" fill="#3F3D56"/>
  <path d="M159.358 175.577C160.043 175.577 160.599 175.023 160.599 174.339C160.599 173.655 160.043 173.101 159.358 173.101C158.672 173.101 158.116 173.655 158.116 174.339C158.116 175.023 158.672 175.577 159.358 175.577Z" fill="#2F2E41"/>
  <path d="M92.3093 172.543C92.2522 172.543 92.1957 172.554 92.143 172.576C92.0903 172.597 92.0424 172.629 92.002 172.67C91.9617 172.71 91.9297 172.758 91.9078 172.81C91.886 172.863 91.8748 172.919 91.8748 172.976V175.206C91.875 175.321 91.921 175.431 92.0024 175.512C92.0839 175.593 92.1942 175.638 92.3093 175.638C92.4243 175.638 92.5347 175.593 92.6161 175.512C92.6976 175.431 92.7435 175.321 92.7438 175.206V172.976C92.7438 172.919 92.7326 172.863 92.7107 172.81C92.6889 172.758 92.6569 172.71 92.6166 172.67C92.5762 172.629 92.5283 172.597 92.4756 172.576C92.4229 172.554 92.3664 172.543 92.3093 172.543Z" fill="#2F2E41"/>
  <path d="M94.6689 172.543C94.6118 172.543 94.5553 172.554 94.5026 172.576C94.4499 172.597 94.402 172.629 94.3616 172.67C94.3213 172.71 94.2893 172.758 94.2674 172.81C94.2456 172.863 94.2344 172.919 94.2344 172.976V175.206C94.2344 175.321 94.2801 175.431 94.3616 175.512C94.4431 175.594 94.5537 175.639 94.6689 175.639C94.7842 175.639 94.8947 175.594 94.9762 175.512C95.0577 175.431 95.1034 175.321 95.1034 175.206V172.976C95.1034 172.919 95.0922 172.863 95.0704 172.81C95.0485 172.758 95.0165 172.71 94.9762 172.67C94.9358 172.629 94.8879 172.597 94.8352 172.576C94.7825 172.554 94.726 172.543 94.6689 172.543Z" fill="#2F2E41"/>
  <path d="M97.0283 172.543C96.9712 172.543 96.9147 172.554 96.862 172.576C96.8093 172.597 96.7614 172.629 96.721 172.67C96.6807 172.71 96.6487 172.758 96.6268 172.81C96.605 172.863 96.5937 172.919 96.5938 172.976V175.206C96.594 175.321 96.64 175.431 96.7214 175.512C96.8029 175.593 96.9132 175.638 97.0283 175.638C97.1433 175.638 97.2537 175.593 97.3351 175.512C97.4166 175.431 97.4625 175.321 97.4628 175.206V172.976C97.4628 172.919 97.4516 172.863 97.4297 172.81C97.4079 172.758 97.3759 172.71 97.3356 172.67C97.2952 172.629 97.2473 172.597 97.1946 172.576C97.1419 172.554 97.0853 172.543 97.0283 172.543Z" fill="#2F2E41"/>
  <path d="M99.3879 172.543C99.3308 172.543 99.2743 172.554 99.2216 172.576C99.1689 172.597 99.121 172.629 99.0806 172.67C99.0403 172.71 99.0083 172.758 98.9864 172.81C98.9646 172.863 98.9534 172.919 98.9534 172.976V175.206C98.9537 175.321 98.9996 175.431 99.081 175.512C99.1625 175.593 99.2729 175.638 99.3879 175.638C99.503 175.638 99.6133 175.593 99.6948 175.512C99.7762 175.431 99.8221 175.321 99.8224 175.206V172.976C99.8224 172.919 99.8112 172.863 99.7893 172.81C99.7675 172.758 99.7355 172.71 99.6952 172.67C99.6548 172.629 99.6069 172.597 99.5542 172.576C99.5015 172.554 99.4449 172.543 99.3879 172.543Z" fill="#2F2E41"/>
  <path d="M101.271 193.33C104.898 193.33 107.839 190.397 107.839 186.779C107.839 183.161 104.898 180.228 101.271 180.228C97.6429 180.228 94.7021 183.161 94.7021 186.779C94.7021 190.397 97.6429 193.33 101.271 193.33Z" fill="#FFB8B8"/>
  <path d="M147.158 194.589C150.786 194.589 153.726 191.656 153.726 188.038C153.726 184.42 150.786 181.487 147.158 181.487C143.53 181.487 140.59 184.42 140.59 188.038C140.59 191.656 143.53 194.589 147.158 194.589Z" fill="#FFB8B8"/>
  <path d="M214.956 108.966C214.307 107.895 213.538 106.752 212.333 106.402C210.938 105.998 209.505 106.802 208.29 107.596C204.655 109.969 201.154 112.541 197.804 115.301L197.808 115.342C200.416 115.163 202.581 122.079 205.189 121.9C207.073 121.77 209.466 114.527 211.131 113.638C211.763 113.3 212.379 112.85 213.095 112.818C213.985 112.779 214.76 113.399 215.37 114.046C218.976 117.876 220.019 123.733 224.065 127.097C221.514 120.823 218.468 114.76 214.956 108.966Z" fill="#3F3D56"/>
  <path d="M221.897 118.268C223.799 121.694 225.817 125.053 227.95 128.344V128.346C227.937 128.462 227.919 128.578 227.902 128.694C227.644 128.301 227.389 127.906 227.136 127.51C225.221 124.514 223.401 121.461 221.677 118.351C220.858 116.872 220.06 115.381 219.282 113.879C218.681 112.714 218.092 111.544 217.516 110.366C217.352 110.029 217.193 109.691 217.033 109.351C216.659 108.555 216.291 107.753 215.897 106.967C215.447 106.07 214.899 105.133 214.073 104.531C213.697 104.245 213.247 104.072 212.777 104.032C212.113 104.036 211.464 104.222 210.899 104.569C206.626 106.809 202.637 109.552 199.018 112.74C195.395 115.915 192.156 119.501 189.368 123.425C189.282 123.546 189.08 123.43 189.166 123.307C189.507 122.828 189.85 122.357 190.204 121.888C194.587 116.075 199.962 111.075 206.082 107.118C207.11 106.453 208.158 105.819 209.227 105.216C209.765 104.911 210.306 104.611 210.857 104.329C211.384 104.021 211.975 103.838 212.585 103.795C214.681 103.762 215.768 106.131 216.513 107.723C216.745 108.225 216.982 108.725 217.223 109.225C218.13 111.115 219.072 112.989 220.05 114.849C220.651 115.995 221.267 117.135 221.897 118.268Z" fill="#3F3D56"/>
  <path d="M198.812 111.57C198.69 111.434 198.569 111.299 198.447 111.163C197.48 110.097 196.443 109.043 195.115 108.432C194.482 108.131 193.791 107.972 193.09 107.964C192.367 107.984 191.653 108.139 190.988 108.421C190.671 108.547 190.361 108.69 190.057 108.843C189.708 109.018 189.366 109.204 189.025 109.392C188.386 109.745 187.755 110.113 187.132 110.497C185.893 111.261 184.693 112.083 183.532 112.963C182.93 113.42 182.34 113.891 181.763 114.378C181.226 114.83 180.7 115.294 180.185 115.77C180.074 115.871 179.91 115.707 180.02 115.606C180.156 115.48 180.293 115.354 180.431 115.231C180.818 114.881 181.213 114.538 181.613 114.201C182.343 113.587 183.092 112.996 183.86 112.429C185.054 111.547 186.289 110.725 187.565 109.963C188.203 109.582 188.85 109.217 189.505 108.868C189.703 108.763 189.903 108.66 190.105 108.563C190.565 108.332 191.042 108.138 191.533 107.983C192.228 107.759 192.963 107.687 193.689 107.772C194.39 107.874 195.065 108.106 195.678 108.458C196.982 109.185 197.993 110.308 198.976 111.405C199.076 111.516 198.912 111.681 198.812 111.57Z" fill="#3F3D56"/>
  <path d="M189.274 116.7C188.943 116.716 188.615 116.623 188.343 116.434C187.621 115.889 187.64 114.58 188.4 112.432C188.607 111.85 188.932 111.317 189.353 110.864C189.775 110.412 190.285 110.051 190.853 109.804C191.384 109.567 191.959 109.442 192.541 109.439C193.123 109.436 193.699 109.553 194.233 109.783C194.326 109.824 194.418 109.867 194.509 109.914C195.127 110.259 195.707 110.669 196.238 111.137C196.689 111.527 197.171 111.882 197.678 112.198L197.847 112.296L197.686 112.409C193.594 115.283 190.819 116.7 189.274 116.7Z" fill="#3F3D56"/>
  <path d="M205.01 99.6C203.665 99.5998 202.361 99.1338 201.321 98.2816C200.282 97.4295 199.571 96.2439 199.31 94.9272C198.185 95.1545 197.152 95.709 196.343 96.5209C195.533 97.3328 194.983 98.3656 194.762 99.4891C194.54 100.613 194.657 101.776 195.098 102.833C195.539 103.89 196.284 104.794 197.239 105.429C198.194 106.064 199.317 106.403 200.465 106.402C201.613 106.402 202.735 106.063 203.69 105.427C204.644 104.791 205.389 103.887 205.829 102.83C206.27 101.772 206.386 100.609 206.164 99.4854C205.784 99.5616 205.398 99.6 205.01 99.6Z" fill="#3F3D56"/>
  <path opacity="0.74" d="M49.4713 108.922C54.2601 108.922 58.1422 105.051 58.1422 100.274C58.1422 95.4983 54.2601 91.6265 49.4713 91.6265C44.6824 91.6265 40.8003 95.4983 40.8003 100.274C40.8003 105.051 44.6824 108.922 49.4713 108.922Z" fill="#3F3D56"/>
  <path opacity="0.74" d="M58.1421 108.922C62.931 108.922 66.8131 105.051 66.8131 100.274C66.8131 95.4983 62.931 91.6265 58.1421 91.6265C53.3533 91.6265 49.4712 95.4983 49.4712 100.274C49.4712 105.051 53.3533 108.922 58.1421 108.922Z" fill="#8B63FF"/>
  <path opacity="0.74" d="M53.8799 102.03C58.6688 102.03 62.5509 98.1582 62.5509 93.3821C62.5509 88.606 58.6688 84.7341 53.8799 84.7341C49.0911 84.7341 45.209 88.606 45.209 93.3821C45.209 98.1582 49.0911 102.03 53.8799 102.03Z" fill="#FF6584"/>
  <path d="M76.5535 90.904L54.2812 97.8826L54.4327 98.3633L76.7049 91.3848L76.5535 90.904Z" fill="#3F3D56"/>
  <path d="M76.6953 92.0716C77.2534 92.0716 77.7059 91.6204 77.7059 91.0638C77.7059 90.5071 77.2534 90.0559 76.6953 90.0559C76.1372 90.0559 75.6848 90.5071 75.6848 91.0638C75.6848 91.6204 76.1372 92.0716 76.6953 92.0716Z" fill="#3F3D56"/>
  <path d="M221.285 136.414C222.766 137.455 224.188 138.515 225.815 139.317C225.785 139.44 225.752 139.566 225.721 139.69C225.522 139.596 225.327 139.498 225.133 139.397C223.483 138.536 222.063 137.364 220.515 136.346C219.747 135.817 218.908 135.398 218.024 135.101C217.102 134.825 216.138 134.712 215.177 134.769C211.167 134.965 207.731 137.351 204.005 138.553C202.181 139.143 200.241 139.458 198.339 139.087C196.436 138.717 194.746 137.709 193.066 136.797C191.409 135.895 189.603 134.988 187.668 134.988C186.091 134.99 184.434 135.62 183.59 137.011C183.564 137.053 183.522 137.082 183.475 137.094C183.427 137.106 183.376 137.098 183.334 137.073C183.291 137.048 183.26 137.008 183.247 136.961C183.234 136.913 183.24 136.863 183.264 136.82C183.453 136.503 183.685 136.213 183.954 135.96C185.055 134.92 186.675 134.509 188.163 134.63C190.088 134.786 191.844 135.693 193.508 136.605C195.274 137.573 197.083 138.614 199.124 138.825C201.14 139.037 203.136 138.51 205.006 137.802C208.626 136.429 212.198 134.141 216.225 134.396C218.125 134.517 219.752 135.338 221.285 136.414Z" fill="#3F3D56"/>
  <path d="M62.8246 63.5441V64.0556C62.6549 64.0221 62.4823 64.0052 62.3093 64.0052H59.6667V69.6642C59.6663 70.5021 59.3323 71.3054 58.7383 71.8979C58.1443 72.4903 57.3388 72.8233 56.4988 72.8238H52.5931V73.6956C52.5931 74.0451 52.6626 74.3911 52.7977 74.7135H52.2571C52.1441 74.386 52.0869 74.042 52.0878 73.6956V72.8238H49.9404V72.3199H52.0878V66.6608C52.0883 65.823 52.4222 65.0196 53.0162 64.4272C53.6102 63.8348 54.4157 63.5017 55.2558 63.5013H59.1615V62.6194H59.6667V63.5013H62.3093C62.4819 63.5014 62.6543 63.5158 62.8246 63.5441Z" fill="#8B63FF"/>
  <path d="M56.4988 59.47H49.4453C48.6053 59.4705 47.7998 59.8035 47.2058 60.3959C46.6118 60.9884 46.2778 61.7917 46.2773 62.6296V69.6643C46.2778 70.5022 46.6118 71.3055 47.2058 71.898C47.7998 72.4904 48.6053 72.8235 49.4453 72.8239H56.4988C57.3389 72.8235 58.1444 72.4904 58.7384 71.898C59.3324 71.3055 59.6663 70.5022 59.6668 69.6643V62.6195C59.6638 61.7834 59.3287 60.9825 58.735 60.3922C58.1412 59.8019 57.3372 59.4703 56.4988 59.47ZM59.1615 69.6643C59.1606 70.3684 58.8797 71.0433 58.3806 71.5411C57.8814 72.039 57.2047 72.3191 56.4988 72.32H49.4453C48.7394 72.3191 48.0627 72.039 47.5636 71.5411C47.0644 71.0433 46.7836 70.3684 46.7826 69.6643V62.6296C46.7836 61.9255 47.0644 61.2506 47.5636 60.7528C48.0627 60.2549 48.7394 59.9748 49.4453 59.9739H56.4988C57.203 59.9747 57.8783 60.2534 58.3772 60.7491C58.8761 61.2447 59.1581 61.9172 59.1615 62.6195V69.6643Z" fill="#3F3D56"/>
  <path d="M52.0879 72.3199V72.8238H52.5932V72.3199H52.0879ZM52.0879 72.3199V72.8238H52.5932V72.3199H52.0879ZM62.8247 63.544C62.6544 63.5157 62.482 63.5014 62.3094 63.5012H55.2559C54.4158 63.5017 53.6103 63.8347 53.0163 64.4272C52.4223 65.0196 52.0884 65.823 52.0879 66.6608V73.6956C52.087 74.0419 52.1442 74.386 52.2572 74.7135C52.4704 75.3379 52.8742 75.8802 53.412 76.2642C53.9497 76.6483 54.5945 76.8549 55.2559 76.8552H62.3094C63.1494 76.8547 63.9549 76.5217 64.5489 75.9292C65.143 75.3368 65.4769 74.5334 65.4774 73.6956V66.6608C65.4772 65.9121 65.2104 65.1877 64.7246 64.6169C64.2387 64.0461 63.5655 63.6659 62.8247 63.544ZM64.9721 73.6956C64.9712 74.3996 64.6903 75.0746 64.1912 75.5724C63.692 76.0702 63.0153 76.3503 62.3094 76.3513H55.2559C54.55 76.3503 53.8733 76.0701 53.3742 75.5723C52.875 75.0745 52.5942 74.3996 52.5932 73.6956V66.6608C52.5941 65.9568 52.875 65.2818 53.3741 64.784C53.8733 64.2862 54.55 64.0061 55.2559 64.0051H62.3094C63.0155 64.0054 63.6926 64.2853 64.1919 64.7833C64.6912 65.2812 64.9718 65.9566 64.9721 66.6608V73.6956ZM52.0879 72.3199V72.8238H52.5932V72.3199H52.0879Z" fill="#3F3D56"/>
  <path d="M47.0984 138.004H17.1364C16.9278 138.004 16.7278 138.087 16.58 138.233C16.4323 138.38 16.3489 138.579 16.3481 138.787V140.559C17.3367 144.335 18.5334 148.054 19.933 151.698H47.0984C47.2016 151.698 47.3038 151.678 47.3992 151.639C47.4946 151.599 47.5812 151.542 47.6542 151.469C47.7272 151.396 47.785 151.31 47.8245 151.214C47.8639 151.119 47.8842 151.017 47.8841 150.914V138.787C47.8839 138.58 47.801 138.381 47.6537 138.234C47.5064 138.087 47.3067 138.004 47.0984 138.004Z" fill="#8B63FF"/>
  <path d="M44.2435 155.631H21.532C21.8023 156.263 22.0777 156.891 22.3631 157.516H44.2435C45.4764 157.533 45.4638 155.613 44.2435 155.631Z" fill="#E4E4E4"/>
  <path d="M44.2437 159.95H23.5027C23.8058 160.582 24.1174 161.21 24.4374 161.834H44.2437C45.4765 161.852 45.4639 159.935 44.2437 159.95Z" fill="#E4E4E4"/>
  <path d="M44.2436 164.271H25.7131C26.0517 164.903 26.4003 165.531 26.754 166.156H44.2436C45.4765 166.173 45.4638 164.253 44.2436 164.271Z" fill="#E4E4E4"/>
  <path d="M199.574 48.1252H199.43C199.878 48.1256 200.32 48.2299 200.721 48.4297H200.066C199.36 48.4305 198.683 48.7105 198.184 49.2084C197.685 49.7062 197.404 50.3812 197.403 51.0853V58.1203C197.404 58.8243 197.685 59.4993 198.184 59.9971C198.683 60.495 199.36 60.775 200.066 60.7758H200.484C200.148 60.9071 199.791 60.9748 199.43 60.9753H199.574C200.347 60.9744 201.088 60.6678 201.635 60.1227C202.181 59.5776 202.489 58.8386 202.49 58.0678V51.0328C202.489 50.2619 202.181 49.5229 201.635 48.9778C201.088 48.4327 200.347 48.1261 199.574 48.1252Z" fill="#3F3D56"/>
  <path opacity="0.21" d="M199.574 48.1252H199.43C199.878 48.1256 200.32 48.2299 200.721 48.4297H200.066C199.36 48.4305 198.683 48.7105 198.184 49.2084C197.685 49.7062 197.404 50.3812 197.403 51.0853V58.1203C197.404 58.8243 197.685 59.4993 198.184 59.9971C198.683 60.495 199.36 60.775 200.066 60.7758H200.484C200.148 60.9071 199.791 60.9748 199.43 60.9753H199.574C200.347 60.9744 201.088 60.6678 201.635 60.1227C202.181 59.5776 202.489 58.8386 202.49 58.0678V51.0328C202.489 50.2619 202.181 49.5229 201.635 48.9778C201.088 48.4327 200.347 48.1261 199.574 48.1252Z" fill="black"/>
  <path d="M180.88 48.1252H180.736C181.184 48.1256 181.626 48.2299 182.026 48.4297H181.371C180.665 48.4305 179.989 48.7105 179.489 49.2084C178.99 49.7062 178.71 50.3812 178.709 51.0853V58.1203C178.71 58.8243 178.99 59.4993 179.489 59.9971C179.989 60.495 180.665 60.775 181.371 60.7758H181.789C181.453 60.9071 181.096 60.9748 180.736 60.9753H180.88C181.653 60.9744 182.394 60.6678 182.94 60.1227C183.487 59.5776 183.794 58.8386 183.795 58.0678V51.0328C183.794 50.2619 183.487 49.5229 182.94 48.9778C182.394 48.4327 181.653 48.1261 180.88 48.1252Z" fill="#8B63FF"/>
  <path opacity="0.21" d="M180.88 48.1252H180.736C181.184 48.1256 181.626 48.2299 182.026 48.4297H181.371C180.665 48.4305 179.989 48.7105 179.489 49.2084C178.99 49.7062 178.71 50.3812 178.709 51.0853V58.1203C178.71 58.8243 178.99 59.4993 179.489 59.9971C179.989 60.495 180.665 60.775 181.371 60.7758H181.789C181.453 60.9071 181.096 60.9748 180.736 60.9753H180.88C181.653 60.9744 182.394 60.6678 182.94 60.1227C183.487 59.5776 183.794 58.8386 183.795 58.0678V51.0328C183.794 50.2619 183.487 49.5229 182.94 48.9778C182.394 48.4327 181.653 48.1261 180.88 48.1252Z" fill="black"/>
  <path d="M181.4 60.7978C180.694 60.797 180.017 60.517 179.518 60.0191C179.018 59.5213 178.738 58.8463 178.737 58.1422V51.1072C178.738 50.4032 179.018 49.7282 179.518 49.2304C180.017 48.7325 180.694 48.4525 181.4 48.4517H182.055C181.654 48.2518 181.212 48.1476 180.764 48.1472H173.71C172.937 48.1481 172.196 48.4547 171.65 48.9998C171.103 49.5449 170.796 50.2839 170.795 51.0547V58.0897C170.796 58.8606 171.103 59.5996 171.65 60.1447C172.196 60.6898 172.937 60.9964 173.71 60.9973H180.764C181.124 60.9968 181.482 60.9291 181.817 60.7978L181.4 60.7978Z" fill="#8B63FF"/>
  <path d="M200.094 60.7978C199.388 60.797 198.712 60.517 198.212 60.0191C197.713 59.5213 197.432 58.8463 197.432 58.1422V51.1072C197.432 50.4032 197.713 49.7282 198.212 49.2304C198.712 48.7325 199.388 48.4525 200.094 48.4517H200.749C200.349 48.2518 199.907 48.1476 199.459 48.1472H192.405C191.632 48.1481 190.891 48.4547 190.345 48.9998C189.798 49.5449 189.491 50.2839 189.49 51.0547V58.0897C189.491 58.8606 189.798 59.5996 190.345 60.1447C190.891 60.6898 191.632 60.9964 192.405 60.9973H199.459C199.819 60.9968 200.176 60.9291 200.512 60.7978L200.094 60.7978Z" fill="#3F3D56"/>
  <path d="M208.424 49.8979C211.012 53.4498 213.38 57.1564 215.515 60.9969H211.099C210.326 60.9957 209.585 60.689 209.039 60.144C208.492 59.5989 208.185 58.86 208.184 58.0892V51.0545C208.183 50.6566 208.265 50.263 208.424 49.8979Z" fill="#FF6584"/>
  <path d="M199.569 64.688L197.098 60.9968L195.292 58.2983C195.186 58.1407 195.038 58.0161 194.865 57.9389C194.691 57.8618 194.5 57.8352 194.312 57.8624C194.124 57.8896 193.947 57.9693 193.803 58.0924C193.658 58.2155 193.552 58.3768 193.496 58.5578L192.735 60.9968L191.204 65.8975C191.144 66.0927 191.144 66.3017 191.206 66.4966C191.268 66.6914 191.388 66.8628 191.55 66.988C191.712 67.1131 191.908 67.186 192.113 67.1969C192.317 67.2078 192.52 67.1562 192.695 67.0489L193.238 66.7138C193.347 66.6466 193.472 66.6083 193.6 66.6026C193.729 66.597 193.856 66.624 193.971 66.6813C194.086 66.7386 194.184 66.8242 194.257 66.93C194.329 67.0357 194.373 67.1582 194.385 67.2858L194.883 72.7029C194.906 72.9518 195.021 73.183 195.206 73.3516C195.391 73.5202 195.632 73.6141 195.883 73.6151C195.913 73.6151 195.944 73.6125 195.977 73.61L196.739 73.542C196.871 73.5301 196.999 73.4924 197.116 73.4311C197.233 73.3698 197.337 73.286 197.421 73.1847C197.506 73.0833 197.569 72.9664 197.608 72.8405C197.647 72.7146 197.661 72.5822 197.649 72.451L197.136 66.8574C197.124 66.726 197.147 66.5938 197.202 66.4739C197.257 66.3541 197.344 66.2509 197.452 66.1748C197.56 66.0987 197.686 66.0523 197.818 66.0403C197.95 66.0284 198.082 66.0512 198.202 66.1066L198.313 66.157C198.512 66.2484 198.736 66.2724 198.95 66.2254C199.164 66.1784 199.357 66.063 199.499 65.8967C199.641 65.7304 199.725 65.5223 199.737 65.3041C199.75 65.0859 199.691 64.8696 199.569 64.688Z" fill="#CCCCCC"/>
  </g>
  <defs>
  <clipPath id="clip0_165_250">
  <rect width="228" height="221" fill="white"/>
  </clipPath>
  </defs>
  </svg>
  