<svg width="338" height="338" viewBox="0 0 338 338" fill="none" xmlns="http://www.w3.org/2000/svg">
<g clip-path="url(#clip0_165_72)">
<path d="M338 169C338.021 187.48 335.006 205.838 329.075 223.34C328.735 224.34 328.387 225.337 328.03 226.33C321.749 243.698 312.668 259.921 301.145 274.355C297.705 278.67 294.06 282.807 290.21 286.765C286.36 290.73 282.318 294.502 278.085 298.08C254.472 318.105 225.788 331.22 195.195 335.98H195.19C191.29 336.585 187.352 337.057 183.375 337.395C178.64 337.795 173.848 337.997 169 338C146.454 338.029 124.131 333.533 103.354 324.777C82.5771 316.021 63.7694 303.183 48.045 287.025C46.94 285.895 45.8516 284.748 44.78 283.585C42.11 280.69 39.5416 277.705 37.075 274.63C35.69 272.9 34.3383 271.143 33.02 269.36C24.8995 258.389 18.1432 246.472 12.9 233.87C10.664 228.503 8.71128 223.022 7.04996 217.45C6.92996 217.055 6.81496 216.66 6.69996 216.265C6.44996 215.415 6.2083 214.56 5.97497 213.7C1.99753 199.133 -0.011989 184.1 -3.85656e-05 169C-3.85656e-05 75.665 75.6649 0 169 0C262.335 0 338 75.665 338 169Z" fill="#C2DBFF"/>
<path d="M81.105 231.963C86.855 214.752 104.755 181.149 120.762 156.46C124.221 151.123 127.598 146.207 130.74 141.959C132.863 139.09 134.883 136.531 136.753 134.349C138.009 132.887 139.553 131.701 141.289 130.864C143.025 130.027 144.915 129.558 146.841 129.485C148.766 129.413 150.686 129.738 152.48 130.442C154.274 131.146 155.904 132.213 157.266 133.576L188.618 164.604L184.746 170.428L175.199 184.796L173.029 188.054L148.144 163.699L139.472 179.732L134.089 189.687L109.546 235.056L106.748 237.352L96.2207 233.214L88.7748 230.284L83.4491 231.513C82.6529 231.697 81.87 231.847 81.105 231.963Z" fill="#3C5E9B"/>
<path d="M319.96 239.581C320.795 240.641 321.66 241.696 322.525 242.756C319.545 248.874 316.196 254.805 312.495 260.516C312.22 260.321 311.945 260.126 311.67 259.931C311.627 259.907 311.585 259.881 311.545 259.851C310.52 259.121 309.49 258.401 308.465 257.671V257.666C307.619 254.789 307.147 251.814 307.06 248.816C307.589 248.695 308.067 248.414 308.431 248.012C308.794 247.609 309.026 247.105 309.093 246.566C309.16 246.028 309.06 245.482 308.806 245.003C308.553 244.523 308.158 244.134 307.675 243.886C307.54 243.651 307.445 243.481 307.31 243.241C307.315 243.181 307.325 243.116 307.33 243.056C308.115 236.811 316.075 234.631 319.96 239.581Z" fill="#277A0A"/>
<path d="M328.935 218.181C329.535 219.831 330.082 221.5 330.575 223.186C330.235 224.186 329.887 225.183 329.53 226.176C329.395 225.651 329.255 225.126 329.11 224.601C328.297 221.682 327.32 218.811 326.185 216.001C325.255 213.696 324.225 211.439 323.095 209.231C316.95 197.234 308.046 186.867 297.115 178.981C292.597 177.936 288.509 175.532 285.4 172.091C284.279 170.855 283.341 169.464 282.615 167.961C283.075 167.896 283.535 167.806 283.985 167.711C284.125 167.681 284.27 167.646 284.41 167.616L284.465 167.606C284.957 167.492 285.405 167.238 285.757 166.875C286.108 166.512 286.346 166.056 286.444 165.56C286.542 165.065 286.494 164.552 286.307 164.083C286.12 163.614 285.802 163.209 285.39 162.916C285.135 162.731 284.875 162.551 284.62 162.371C284.23 162.086 283.835 161.816 283.44 161.536C283.398 161.51 283.358 161.482 283.32 161.451C282.87 161.131 282.42 160.821 281.975 160.496C282.32 159.382 282.917 158.362 283.72 157.516C286.515 154.631 291.505 154.696 294.765 157.046C298.03 159.396 299.67 163.511 299.88 167.521C300.065 170.956 299.325 174.356 298.35 177.671C298.595 177.851 298.85 178.021 299.095 178.206C303.596 181.542 307.76 185.312 311.525 189.461C309.35 184.301 308.56 177.571 309.125 172.936C309.77 167.656 312.335 162.641 314.435 157.646C316.95 151.646 325.53 151.566 327.95 157.606C327.975 157.666 328 157.721 328.02 157.781C327.615 158.186 327.225 158.606 326.85 159.041C326.379 159.589 326.085 160.267 326.005 160.985C325.926 161.703 326.066 162.429 326.406 163.066C326.745 163.704 327.27 164.224 327.91 164.559C328.551 164.893 329.277 165.027 329.995 164.941L330.07 164.931C330.382 166.714 330.559 168.517 330.6 170.326C330.662 175.388 329.678 180.407 327.709 185.071C325.741 189.734 322.83 193.94 319.16 197.426C318.92 197.651 318.685 197.871 318.44 198.086C320.756 201.38 322.836 204.834 324.665 208.421C326.288 211.583 327.714 214.843 328.935 218.181Z" fill="#277A0A"/>
<path d="M232.593 171.275L231.083 274.98L109.103 271.48L128.583 228.48C128.443 227.1 137.133 217.415 137.083 215.98C136.933 211.775 140.073 207.88 140.583 203.48C141.623 194.405 135.668 160.135 138.413 153.055C139.582 149.893 141.08 146.864 142.883 144.015C144.443 141.655 146.043 140.065 147.573 139.49L152.083 128.98L156.083 122.98L187.468 113.685L190.938 112.655L199.033 120.555L204.758 126.145L210.143 127.08C210.948 127.22 211.728 127.385 212.478 127.575C216.09 128.408 219.457 130.076 222.308 132.445C231.708 140.43 232.803 155.45 232.593 171.275Z" fill="#3C5E9B"/>
<path d="M302.645 274.201C299.205 278.516 295.56 282.653 291.71 286.611L278.52 286.621L207.585 286.701L194.815 286.716L186.325 286.726L173.695 286.736L163.98 286.746L146.035 286.766L135.45 286.781L113.16 286.801L102.52 286.816L73.035 286.846L54.515 286.866L49.545 286.871C48.44 285.741 47.3517 284.594 46.28 283.431C43.61 280.536 41.0417 277.551 38.575 274.476L48.865 274.466L55.875 274.461L72.105 274.441L103.425 274.411L114.01 274.401L118.29 274.396H118.305L121.665 274.391L123.17 274.386L127.025 274.381H128.655L140.085 274.371L164.74 274.341L175.59 274.331L185.98 274.321L195.72 274.311L209.695 274.296L284.335 274.221L302.645 274.201Z" fill="#DEB877"/>
<path d="M133.883 118.486L133.856 118.489C132.413 118.623 130.977 118.178 129.862 117.253C128.747 116.328 128.045 114.998 127.911 113.556L125.068 83.2062C124.553 77.7692 125.137 72.2842 126.784 67.0774C130.014 56.9151 137.04 48.3911 146.399 43.2817C151.232 40.6504 156.547 39.0248 162.025 38.503C184.434 36.368 192.624 41.0353 206.467 75.2136C220.31 109.392 209.315 105.61 209.315 105.61C209.384 106.341 209.305 107.079 209.083 107.779C208.648 109.146 207.701 110.291 206.441 110.976C205.794 111.327 205.083 111.544 204.351 111.614C177.858 118.348 151.125 125.437 133.878 118.486L133.883 118.486Z" fill="#2F2E41"/>
<path d="M183.194 67.2605C186.519 72.181 188.312 77.9768 188.346 83.9157C188.38 89.8546 186.653 95.6703 183.383 100.628C180.113 105.586 175.448 109.464 169.976 111.772C164.503 114.08 158.47 114.715 152.637 113.596C148.776 112.867 145.098 111.38 141.816 109.221C138.534 107.061 135.713 104.271 133.517 101.013C130.198 96.0941 128.41 90.3027 128.378 84.3691C128.346 78.4354 130.072 72.6252 133.338 67.6709C136.603 62.7166 141.263 58.8402 146.729 56.5303C152.194 54.2204 158.221 53.5806 164.05 54.6914C167.914 55.4152 171.596 56.8991 174.883 59.0569C178.169 61.2147 180.994 64.0035 183.194 67.2616L183.194 67.2605Z" fill="#9E616A"/>
<path d="M115.673 86.578C115.266 82.2779 115.728 77.94 117.031 73.822C117.333 63.7484 120.256 54.6241 132.542 55.0071C136.34 52.9411 140.515 51.66 144.818 51.2402L150.89 50.6407C150.958 50.6339 151.026 50.6273 151.094 50.621C155.301 50.2295 159.543 50.6704 163.579 51.9184C167.615 53.1665 171.366 55.1973 174.618 57.8949C177.869 60.5926 180.557 63.9042 182.528 67.6406C184.5 71.3771 185.716 75.4654 186.108 79.6719L186.164 80.2798L173.319 81.5356L167.79 69.7047L168.063 82.0519L161.429 82.703L158.641 76.7341L158.777 82.9594C148.926 91.6352 133.989 92.0899 115.736 87.1864L115.673 86.578Z" fill="#2F2E41"/>
<path d="M156.763 115.378C156.653 116.378 156.827 117.388 157.263 118.294C157.483 118.759 157.767 119.19 158.107 119.575C158.397 119.903 158.726 120.196 159.085 120.447C160.149 121.188 161.443 121.525 162.733 121.399C162.813 121.39 162.894 121.381 162.974 121.369C163.054 121.358 163.134 121.345 163.214 121.33C163.294 121.316 163.374 121.299 163.454 121.28C163.533 121.261 163.613 121.241 163.692 121.219L168.176 119.963L173.2 105.953L174.352 118.246L194.738 112.571L189.851 60.4031L155.104 63.8269L156.057 64.7445C159.223 67.8264 161.478 71.722 162.572 76.0028C163.659 80.3406 163.995 84.8326 163.564 89.2838C163.162 93.7846 162.329 98.2365 161.076 102.578C159.985 106.422 158.673 110.201 157.148 113.894C156.951 114.368 156.821 114.868 156.763 115.378Z" fill="#2F2E41"/>
<path d="M161.396 279.855C160.798 279.854 160.209 279.721 159.669 279.464L63.4092 281.92C62.6705 281.57 62.0554 281.004 61.645 280.298C61.2346 279.591 61.0482 278.776 61.1105 277.961C61.1728 277.146 61.4808 276.369 61.9939 275.733C62.507 275.097 63.201 274.631 63.9842 274.398L126.96 255.62C127.612 255.426 128.303 255.399 128.968 255.543L226.381 267.416C227.243 267.603 228.021 268.066 228.595 268.736C229.169 269.405 229.508 270.244 229.56 271.125C229.613 272.005 229.376 272.878 228.885 273.611C228.395 274.344 227.678 274.897 226.844 275.184L162.715 279.632C162.291 279.779 161.845 279.854 161.396 279.855Z" fill="#3F3D56"/>
<path d="M164.936 273.154C164.502 273.154 164.074 273.043 163.695 272.831L85.5176 276.483C85.0737 276.234 84.715 275.857 84.4883 275.401C84.2616 274.945 84.1774 274.432 84.2466 273.928C84.3159 273.423 84.5354 272.952 84.8765 272.574C85.2177 272.196 85.6647 271.93 86.1593 271.81L114.461 264.941C114.903 264.834 115.365 264.847 115.8 264.98L188.477 264.893C188.994 265.051 189.447 265.371 189.77 265.805C190.092 266.24 190.267 266.766 190.269 267.307C190.271 267.848 190.1 268.376 189.78 268.812C189.461 269.249 189.01 269.572 188.494 269.734L165.692 273.038C165.448 273.115 165.193 273.154 164.936 273.154Z" fill="#2F2E41"/>
<path d="M156.707 268.987C158.061 269.859 159.589 270.424 161.184 270.642C162.779 270.86 164.402 270.726 165.94 270.248C167.478 269.771 168.892 268.962 170.083 267.879C171.274 266.796 172.214 265.465 172.835 263.98L255.583 270.48L251.583 249.98L166.234 249.167C163.669 248.289 160.872 248.382 158.372 249.428C155.871 250.475 153.842 252.402 152.667 254.845C151.493 257.288 151.256 260.077 152 262.684C152.745 265.29 154.42 267.533 156.707 268.987Z" fill="#A0616A"/>
<path d="M205.583 135.48C205.583 135.48 218.083 125.48 233.083 143.48C243.198 155.619 262.712 229.002 264.33 259.411C264.433 261.335 264.136 263.26 263.46 265.064C262.784 266.869 261.742 268.514 260.4 269.897C259.058 271.28 257.445 272.371 255.662 273.101C253.879 273.831 251.964 274.186 250.038 274.142L205.933 273.374L201.001 245.649L235.822 246.061L205.583 135.48Z" fill="#3C5E9B"/>
<path d="M156.042 279.866C154.529 279.865 153.031 279.561 151.637 278.974L62.4158 281.01C60.0612 280.028 58.1065 278.28 56.8679 276.05C55.6293 273.819 55.1792 271.236 55.5903 268.718L52.2751 190.363C52.7148 187.564 54.1878 185.032 56.4035 183.266C58.6192 181.5 61.4163 180.63 64.2426 180.826L147.074 184.261C148.664 184.366 150.215 184.803 151.625 185.545C153.035 186.287 154.273 187.317 155.26 188.568C156.246 189.82 156.958 191.264 157.35 192.809C157.742 194.353 157.805 195.963 157.535 197.533L167.24 270.417C166.784 273.058 165.411 275.454 163.362 277.182C161.314 278.91 158.722 279.86 156.042 279.866Z" fill="#3F3D56"/>
</g>
<defs>
<clipPath id="clip0_165_72">
<rect width="338" height="338" fill="white"/>
</clipPath>
</defs>
</svg>
