<svg viewBox="0 0 367 210" fill="none" xmlns="http://www.w3.org/2000/svg">
  <g clip-path="url(#clip0_165_178)">
  <path d="M60.3245 95.484V36.4669C60.3245 35.6241 60.6588 34.8158 61.2538 34.2198C61.8488 33.6239 62.6558 33.2891 63.4973 33.2891C64.3388 33.2891 65.1459 33.6239 65.7409 34.2198C66.3359 34.8158 66.6702 35.6241 66.6702 36.4669V95.484C66.6702 96.3269 66.3359 97.1352 65.7409 97.7311C65.1459 98.3271 64.3388 98.6619 63.4973 98.6619C62.6558 98.6619 61.8488 98.3271 61.2538 97.7311C60.6588 97.1352 60.3245 96.3269 60.3245 95.484Z" fill="#F0F0F0"/>
  <path d="M52.7322 95.484V36.4669C52.7322 35.6241 53.0665 34.8158 53.6615 34.2198C54.2565 33.6239 55.0636 33.2891 55.9051 33.2891C56.7466 33.2891 57.5536 33.6239 58.1486 34.2198C58.7436 34.8158 59.0779 35.6241 59.0779 36.4669V95.484C59.0779 96.3269 58.7436 97.1352 58.1486 97.7311C57.5536 98.3271 56.7466 98.6619 55.9051 98.6619C55.0636 98.6619 54.2565 98.3271 53.6615 97.7311C53.0665 97.1352 52.7322 96.3269 52.7322 95.484Z" fill="#F0F0F0"/>
  <path d="M45.1399 95.484V36.4669C45.1399 35.6241 45.4742 34.8158 46.0692 34.2198C46.6642 33.6239 47.4713 33.2891 48.3128 33.2891C49.1543 33.2891 49.9613 33.6239 50.5563 34.2198C51.1514 34.8158 51.4856 35.6241 51.4856 36.4669V95.484C51.4856 96.3269 51.1514 97.1352 50.5563 97.7311C49.9613 98.3271 49.1543 98.6619 48.3128 98.6619C47.4713 98.6619 46.6642 98.3271 46.0692 97.7311C45.4742 97.1352 45.1399 96.3269 45.1399 95.484Z" fill="#F0F0F0"/>
  <path d="M331.789 189.746C330.511 189.747 329.242 189.527 328.04 189.095L327.854 189.028L327.94 188.617C325.786 184.258 326.539 178.287 329.867 173.378C332.894 168.915 337.496 165.67 341.555 162.807C342.071 162.444 342.683 162.244 343.312 162.232C343.942 162.219 344.561 162.396 345.09 162.739C345.619 163.083 346.033 163.576 346.279 164.157C346.526 164.738 346.593 165.379 346.472 165.998L345.021 173.459C343.973 178.841 342.726 183.935 339.03 187.111C336.999 188.813 334.436 189.746 331.789 189.746Z" fill="#277A0A"/>
  <path d="M341.296 202.638C339.89 202.63 338.508 202.27 337.276 201.591C336.044 200.912 335.001 199.935 334.242 198.75L334.137 198.586L334.388 198.364C335.037 194.815 338.092 191.652 342.194 190.292C345.923 189.056 350.038 189.258 353.667 189.436C354.147 189.459 354.608 189.625 354.994 189.911C355.38 190.198 355.672 190.593 355.833 191.046C355.994 191.498 356.018 191.989 355.9 192.455C355.783 192.922 355.53 193.342 355.173 193.665L351.09 197.356C348.123 200.038 345.164 202.459 341.595 202.632C341.495 202.636 341.396 202.638 341.296 202.638Z" fill="#277A0A"/>
  <path d="M328.625 206.584C328.023 202.087 327.403 197.533 327.825 192.988C328.201 188.951 329.404 185.009 331.852 181.776C333.146 180.069 334.728 178.602 336.526 177.44C336.993 177.138 337.423 177.896 336.958 178.197C333.841 180.224 331.443 183.186 330.108 186.659C328.617 190.543 328.377 194.777 328.634 198.902C328.79 201.397 329.119 203.876 329.451 206.351C329.478 206.462 329.462 206.579 329.407 206.679C329.351 206.779 329.26 206.854 329.152 206.89C329.097 206.905 329.04 206.908 328.984 206.901C328.928 206.894 328.874 206.875 328.825 206.847C328.776 206.818 328.734 206.78 328.699 206.735C328.665 206.69 328.64 206.639 328.625 206.584Z" fill="#277A0A"/>
  <path d="M326.922 209.169C329.824 203.911 333.19 198.068 339.205 196.2C340.875 195.683 342.63 195.498 344.371 195.654C344.919 195.703 344.783 196.568 344.235 196.52C341.31 196.274 338.392 197.064 335.99 198.753C333.666 200.374 331.855 202.626 330.323 205.015C329.385 206.478 328.544 208.003 327.704 209.526C327.435 210.013 326.65 209.662 326.922 209.169Z" fill="#277A0A"/>
  <path d="M325.615 209.092L328.546 209.159L310.877 114.624L307.947 115.177L312.561 139.701H297.697L302.31 115.177L299.38 114.624L281.859 209.159L284.642 209.092L293.853 160.13H316.404L325.615 209.092ZM294.536 156.498L297.013 143.332H313.244L315.721 156.498H294.536Z" fill="#CACACA"/>
  <path d="M197.665 96.9899V65.9444C197.665 65.0226 199.088 64.2727 200.837 64.2727C202.587 64.2727 204.01 65.0226 204.01 65.9444V96.9899C204.01 97.9116 202.587 98.6615 200.837 98.6615C199.088 98.6615 197.665 97.9116 197.665 96.9899Z" fill="#F0F0F0"/>
  <path d="M190.072 96.9899V65.9444C190.072 65.0226 191.496 64.2727 193.245 64.2727C194.995 64.2727 196.418 65.0226 196.418 65.9444V96.9899C196.418 97.9116 194.995 98.6615 193.245 98.6615C191.496 98.6615 190.072 97.9116 190.072 96.9899Z" fill="#F0F0F0"/>
  <path d="M182.48 96.9899V65.9444C182.48 65.0226 183.903 64.2727 185.653 64.2727C187.403 64.2727 188.826 65.0226 188.826 65.9444V96.9899C188.826 97.9116 187.403 98.6615 185.653 98.6615C183.903 98.6615 182.48 97.9116 182.48 96.9899Z" fill="#F0F0F0"/>
  <path d="M246.352 74.1591C246.338 74.0647 246.304 73.9744 246.253 73.894C246.202 73.8136 246.134 73.7448 246.055 73.6923L222.134 57.8762C222.495 57.7255 222.796 57.461 222.993 57.1229C223.232 56.7055 223.296 56.2103 223.172 55.7456C223.047 55.2808 222.745 54.8842 222.329 54.6424L220.367 53.5074C219.95 53.268 219.455 53.2036 218.991 53.3281C218.527 53.4527 218.131 53.7561 217.89 54.1721C217.759 54.4007 217.681 54.6554 217.66 54.9179L200.394 43.5011C199.814 42.0945 198.934 40.8315 197.817 39.8C196.7 38.7684 195.372 37.9933 193.925 37.5285V32.4946H187.579V37.5285C185.474 38.2028 183.637 39.5297 182.334 41.3176C181.03 43.1055 180.327 45.262 180.327 47.4759V48.8378H186.673C186.673 49.9215 187.103 50.9607 187.868 51.7269C188.633 52.4932 189.67 52.9236 190.752 52.9236C191.834 52.9236 192.872 52.4932 193.637 51.7269C194.402 50.9607 194.832 49.9215 194.832 48.8378H201.177V47.4759C201.177 46.823 201.115 46.1716 200.994 45.5302L244.675 74.4122L226.53 96.5075C226.389 96.5068 226.249 96.5056 226.107 96.5056C224.66 96.5056 223.257 96.5398 221.92 96.5988C222.001 96.3744 222.036 96.1362 222.024 95.898C221.997 95.4176 221.782 94.9671 221.425 94.645C221.068 94.3229 220.599 94.1554 220.119 94.1791L217.856 94.2972C217.376 94.3236 216.926 94.5391 216.605 94.8966C216.283 95.2541 216.116 95.7245 216.139 96.2051C216.156 96.489 216.24 96.7648 216.385 97.0095C212.383 97.4355 209.79 98.0227 209.79 98.3214C209.79 98.811 216.753 98.3449 225.469 98.3225C225.509 98.436 225.579 98.5369 225.67 98.6146C225.762 98.6924 225.873 98.7444 225.991 98.7652C226.109 98.786 226.231 98.7749 226.344 98.733C226.456 98.6912 226.556 98.62 226.632 98.5269L226.8 98.3226C235.49 98.3469 242.425 98.8099 242.425 98.3214C242.425 97.8608 236.26 96.7151 228.271 96.5314L246.205 74.6931C246.266 74.6194 246.31 74.5337 246.335 74.4417C246.36 74.3497 246.366 74.2534 246.352 74.1591Z" fill="#CCCCCC"/>
  <path d="M247.006 209.319H191.156C190.028 209.318 188.946 208.868 188.148 208.069C187.35 207.269 186.901 206.186 186.9 205.055V113.254C186.898 112.243 186.497 111.275 185.784 110.561C185.071 109.847 184.104 109.445 183.096 109.444H52.4567C51.4482 109.445 50.4814 109.847 49.7682 110.561C49.0551 111.275 48.654 112.243 48.6528 113.254V205.055C48.6515 206.185 48.2026 207.269 47.4045 208.069C46.6064 208.868 45.5244 209.318 44.3957 209.319H42.4848C41.3561 209.318 40.274 208.868 39.4759 208.069C38.6779 207.269 38.2289 206.186 38.2277 205.055V108.309C38.2307 105.601 39.3061 103.005 41.2181 101.09C43.13 99.1747 45.7223 98.0975 48.4262 98.0945H241.065C243.769 98.0976 246.361 99.1747 248.273 101.09C250.185 103.005 251.261 105.601 251.264 108.309V205.055C251.262 206.186 250.813 207.269 250.015 208.069C249.217 208.868 248.135 209.318 247.006 209.319Z" fill="#E4E4E4"/>
  <path d="M251.037 121.928H187.126V124.652H251.037V121.928Z" fill="white"/>
  <path d="M251.037 158.7H187.126V161.424H251.037V158.7Z" fill="white"/>
  <path d="M134.222 97.6461L132.385 96.8715L131.125 87.6489H114.345L112.979 96.8338L111.336 97.6568C111.258 97.6962 111.194 97.761 111.157 97.8407C111.12 97.9205 111.111 98.0105 111.131 98.0961C111.151 98.1818 111.2 98.2582 111.269 98.3128C111.337 98.3674 111.423 98.3972 111.511 98.3972H134.071C134.161 98.3972 134.248 98.366 134.318 98.3088C134.388 98.2517 134.436 98.1721 134.453 98.0837C134.471 97.9953 134.458 97.9034 134.416 97.8236C134.374 97.7438 134.305 97.6811 134.222 97.6461Z" fill="#E6E6E6"/>
  <path d="M164.042 88.876H81.6133C81.1808 88.875 80.7664 88.7022 80.4609 88.3956C80.1554 88.089 79.9839 87.6735 79.9839 87.2403V75.5986H165.671V87.2403C165.671 87.6735 165.5 88.089 165.194 88.3956C164.889 88.7022 164.474 88.875 164.042 88.876Z" fill="#CCCCCC"/>
  <path d="M165.757 81.1007H79.9086V31.2884C79.9092 30.7656 80.1168 30.2644 80.4858 29.8948C80.8549 29.5252 81.3553 29.3172 81.8772 29.3167H163.789C164.31 29.3172 164.811 29.5252 165.18 29.8948C165.549 30.2644 165.757 30.7656 165.757 31.2884V81.1007Z" fill="#3F3D56"/>
  <path d="M160.63 77.4855H85.036C84.6336 77.4851 84.2479 77.3248 83.9633 77.0398C83.6788 76.7549 83.5188 76.3685 83.5183 75.9655V34.4523C83.5188 34.0492 83.6788 33.6629 83.9633 33.3779C84.2479 33.0929 84.6336 32.9326 85.036 32.9321H160.63C161.032 32.9326 161.418 33.0929 161.703 33.3779C161.987 33.6629 162.147 34.0492 162.148 34.4523V75.9655C162.147 76.3685 161.987 76.7549 161.703 77.0398C161.418 77.3248 161.032 77.4851 160.63 77.4855Z" fill="white"/>
  <path d="M245.372 37.6976C246.095 37.5933 246.832 37.649 247.531 37.8609C248.231 38.0727 248.875 38.4356 249.419 38.9238C249.963 39.4121 250.394 40.014 250.681 40.687C250.968 41.36 251.104 42.0878 251.079 42.8191L267.653 49.2086L260.144 54.5819L245.557 47.6906C244.333 47.568 243.196 47.0001 242.362 46.0943C241.528 45.1886 241.055 44.008 241.033 42.7762C241.01 41.5445 241.439 40.3471 242.239 39.4111C243.039 38.4751 244.153 37.8654 245.372 37.6976Z" fill="#9E616A"/>
  <path d="M308.303 34.561L311.106 39.6668C310.429 42.9052 308.678 45.8189 306.137 47.9341C301.845 51.5603 279.398 65.0657 279.398 65.0657L251.061 50.8174L256.018 44.2197L278.266 51.6872C286.519 43.8819 296.478 38.1155 307.349 34.8475L308.303 34.561Z" fill="#3C5E92"/>
  <path d="M303.089 119.049C315.303 119.049 325.204 115.817 325.204 111.831C325.204 107.845 315.303 104.614 303.089 104.614C290.875 104.614 280.974 107.845 280.974 111.831C280.974 115.817 290.875 119.049 303.089 119.049Z" fill="#CACACA"/>
  <path d="M253.475 202.976L247.603 201.35L251.069 177.889L259.737 180.29L253.475 202.976Z" fill="#9E616A"/>
  <path d="M253.399 209.092L234.464 203.849L234.53 203.61C235.07 201.652 236.365 199.989 238.129 198.988C239.893 197.986 241.983 197.727 243.937 198.268L243.938 198.268L255.503 201.47L253.399 209.092Z" fill="#2F2E41"/>
  <path d="M236.449 203.052L230.875 200.587L237.715 177.883L245.941 181.52L236.449 203.052Z" fill="#9E616A"/>
  <path d="M235.484 209.092L217.513 201.144L217.613 200.916C218.433 199.058 219.955 197.602 221.846 196.869C223.737 196.135 225.842 196.183 227.697 197.004L227.697 197.004L238.674 201.858L235.484 209.092Z" fill="#2F2E41"/>
  <path d="M320.3 94.1854C320.3 94.1854 323.254 103.353 305.129 114.946L281.785 138.243L257.53 196.355L243.129 189.889L245.954 182.339L247.849 177.272L248.818 174.68L249.858 171.901L265.274 130.686L278.224 107.977L278.6 95.6542L281.785 86.968L304.894 78.7551L320.3 94.1854Z" fill="#F2F2F2"/>
  <path d="M308.515 94.6395C308.515 94.6395 311.469 103.807 293.344 115.4L270 138.697L245.744 196.809L231.344 190.343L234.169 182.793L236.064 177.726L237.033 175.134L238.073 172.356L253.489 131.14L257.825 123.537C263.545 113.506 270.496 104.231 278.515 95.9279L282.766 91.5271L283.219 84.7174L293.109 79.2092L308.515 94.6395Z" fill="#F2F2F2"/>
  <path d="M294.551 49.761L301.803 34.3258L314.459 32.5967C314.459 32.5967 324.341 45.2068 321.747 62.9264C320.774 69.5712 319.981 76.1866 319.934 81.9935C319.921 83.5386 321.271 84.2285 321.294 85.6253C321.316 86.9974 318.736 89.2326 319.481 90.1651C320.546 91.4503 321.18 93.0385 321.294 94.7049C320.395 96.8459 293.211 85.2467 281.785 86.968L294.551 49.761Z" fill="#3C5E92"/>
  <path d="M312.526 24.8259C315.757 19.383 313.97 12.3477 308.536 9.11223C303.101 5.87674 296.077 7.6662 292.847 13.1091C289.616 18.552 291.403 25.5872 296.837 28.8227C302.272 32.0582 309.296 30.2688 312.526 24.8259Z" fill="#9E616A"/>
  <path d="M310.005 14.851C309.983 15.1527 309.953 15.5522 309.918 16.0042C309.882 17.2416 310.23 18.4597 310.914 19.4907C311.555 20.5755 310.791 27.127 310.791 27.127C329.542 14.0359 314.726 0.88392 308.93 2.05304C309.051 0.388248 304.324 1.04776 304.324 1.04776C302.523 -1.76137 298.576 1.96752 298.576 1.96752L299.338 0.684156C296.273 1.46487 293.244 10.951 293.244 10.951C294.283 15.0435 310.126 13.1862 310.005 14.851Z" fill="#2F2E41"/>
  <path d="M288.31 92.913L294.019 105.772C294.157 106.08 294.216 106.417 294.191 106.754C294.166 107.09 294.057 107.415 293.875 107.699C293.661 108.038 293.351 108.306 292.985 108.469C292.618 108.632 292.212 108.683 291.817 108.615C291.682 108.595 291.551 108.559 291.424 108.51C290.919 108.315 290.512 107.927 290.292 107.432L284.582 94.5732C284.474 94.3281 284.414 94.0639 284.407 93.7957C284.4 93.5275 284.446 93.2606 284.542 93.0101C284.736 92.5044 285.123 92.0966 285.617 91.8764C286.112 91.6563 286.673 91.6418 287.178 91.8362C287.683 92.0306 288.09 92.4179 288.31 92.913Z" fill="#8B63FF"/>
  <path d="M293.559 104.735L294.703 107.33L295.288 111.01C295.326 111.252 295.284 111.5 295.167 111.716C295.051 111.932 294.866 112.103 294.642 112.202C294.418 112.302 294.168 112.325 293.93 112.267C293.692 112.209 293.479 112.075 293.326 111.884L290.959 108.934L289.832 106.395L293.559 104.735Z" fill="#3F3D56"/>
  <path d="M283.314 89.3354L284.132 94.4835C284.159 94.6521 284.224 94.8122 284.322 94.9516C284.42 95.0909 284.55 95.2057 284.699 95.2871C284.849 95.3686 285.016 95.4144 285.186 95.4211C285.356 95.4278 285.526 95.3953 285.681 95.3259L286.492 94.9646L288.058 98.4905C288.107 98.6003 288.197 98.6862 288.31 98.7293C288.422 98.7723 288.546 98.7691 288.656 98.7202C288.766 98.6713 288.852 98.5808 288.895 98.4686C288.938 98.3564 288.935 98.2316 288.886 98.1216L287.321 94.5957L288.132 94.2344C288.401 94.1145 288.611 93.8927 288.717 93.6177C288.823 93.3427 288.816 93.0368 288.698 92.767C288.658 92.6776 288.607 92.5938 288.545 92.5178L285.276 88.4612C285.123 88.2703 284.91 88.1356 284.672 88.0781C284.434 88.0206 284.184 88.0435 283.96 88.1432C283.736 88.2429 283.551 88.4138 283.434 88.6293C283.318 88.8449 283.275 89.0931 283.314 89.3354Z" fill="#3F3D56"/>
  <path d="M285.682 98.6275C285.811 97.9072 286.096 97.2239 286.517 96.6257C286.937 96.0276 287.484 95.5292 288.118 95.1655C288.752 94.8019 289.458 94.5819 290.186 94.521C290.914 94.4602 291.647 94.5599 292.332 94.8133L303.603 81.0676L306.332 89.8972L295.211 101.597C294.709 102.722 293.814 103.623 292.693 104.131C291.572 104.639 290.304 104.717 289.13 104.351C287.955 103.985 286.956 103.2 286.32 102.145C285.685 101.09 285.458 99.8387 285.682 98.6275Z" fill="#9E616A"/>
  <path d="M299.872 97.7341L294.907 90.5525L309.004 71.7282L301.742 56.1431L302.271 37.6048L308.271 36.4946L308.346 36.532C311.263 38.214 313.518 40.8448 314.737 43.9876C316.234 47.7358 319.575 61.8065 321.434 69.8599C321.799 71.4205 321.759 73.0489 321.318 74.5897C320.877 76.1305 320.049 77.5325 318.914 78.6621L299.872 97.7341Z" fill="#3C5E92"/>
  <path d="M160.101 63.033C160.059 63.3818 160.045 63.7333 160.059 64.0843L134.643 82.6038L127.661 79.5088L121.62 89.4525L133.449 96.1347C134.405 96.6745 135.51 96.8893 136.598 96.7467C137.686 96.6042 138.698 96.1121 139.483 95.3443L165.063 70.3195C166.373 70.6527 167.752 70.5788 169.019 70.1075C170.285 69.6363 171.378 68.79 172.153 67.6814C172.927 66.5727 173.346 65.2542 173.354 63.9011C173.362 62.548 172.959 61.2246 172.197 60.1068C171.436 58.989 170.353 58.1299 169.092 57.6436C167.832 57.1574 166.453 57.067 165.14 57.3847C163.827 57.7024 162.641 58.4129 161.741 59.4219C160.841 60.4308 160.269 61.6904 160.101 63.033Z" fill="#FFB6B6"/>
  <path d="M133.821 83.2808L126.41 95.6508C126.199 96.0028 125.915 96.3051 125.577 96.5371C125.238 96.7692 124.854 96.9255 124.451 96.9955C124.047 97.0655 123.633 97.0475 123.236 96.9428C122.84 96.838 122.471 96.649 122.154 96.3885L111.057 87.2601C109.266 86.1691 107.979 84.4111 107.48 82.3717C106.98 80.3322 107.309 78.1776 108.393 76.3803C109.477 74.5829 111.228 73.2894 113.263 72.7832C115.298 72.2771 117.45 72.5996 119.248 73.6802L132.47 79.1729C132.848 79.3303 133.188 79.5675 133.467 79.8685C133.746 80.1694 133.956 80.527 134.085 80.9168C134.213 81.3067 134.256 81.7196 134.21 82.1276C134.165 82.5355 134.032 82.9288 133.821 83.2808Z" fill="#8B63FF"/>
  <path d="M102.064 190.799H116.593V166.686H102.064V190.799Z" fill="#CACACA"/>
  <path d="M115.864 179.445L114 182.198L148.868 205.895L150.733 203.143L115.864 179.445Z" fill="#CACACA"/>
  <path d="M102.792 179.445L67.9242 203.143L69.7889 205.895L104.657 182.198L102.792 179.445Z" fill="#CACACA"/>
  <path d="M149.8 209.092C152.322 209.092 154.366 207.044 154.366 204.519C154.366 201.993 152.322 199.946 149.8 199.946C147.278 199.946 145.234 201.993 145.234 204.519C145.234 207.044 147.278 209.092 149.8 209.092Z" fill="#CACACA"/>
  <path d="M109.121 209.092C111.643 209.092 113.687 207.044 113.687 204.519C113.687 201.993 111.643 199.946 109.121 199.946C106.599 199.946 104.555 201.993 104.555 204.519C104.555 207.044 106.599 209.092 109.121 209.092Z" fill="#CACACA"/>
  <path d="M68.8566 209.092C71.3783 209.092 73.4226 207.044 73.4226 204.519C73.4226 201.993 71.3783 199.946 68.8566 199.946C66.3348 199.946 64.2905 201.993 64.2905 204.519C64.2905 207.044 66.3348 209.092 68.8566 209.092Z" fill="#CACACA"/>
  <path d="M110.781 180.821H107.46V204.519H110.781V180.821Z" fill="#CACACA"/>
  <path d="M106.215 177.495H112.442V145.483H106.215V177.495Z" fill="#CACACA"/>
  <path d="M91.4792 150.472V142.988C91.4808 141.611 92.028 140.29 93.0007 139.315C93.9734 138.341 95.2923 137.793 96.6679 137.792H124.479C125.855 137.793 127.174 138.341 128.147 139.315C129.119 140.29 129.666 141.611 129.668 142.988V150.472C129.666 151.85 129.119 153.171 128.147 154.145C127.174 155.119 125.855 155.667 124.479 155.669H96.6679C95.2923 155.667 93.9734 155.119 93.0007 154.145C92.028 153.171 91.4808 151.85 91.4792 150.472Z" fill="#3F3D56"/>
  <path d="M141.71 201.625L149.401 201.624L153.061 181.644L141.709 181.645L141.71 201.625Z" fill="#FFB8B8"/>
  <path d="M139.749 209.092L164.549 209.091V208.777C164.549 207.507 164.3 206.25 163.814 205.077C163.329 203.904 162.618 202.838 161.722 201.941C160.826 201.043 159.762 200.331 158.59 199.845C157.419 199.359 156.164 199.109 154.896 199.109H154.895L139.748 199.109L139.749 209.092Z" fill="#2F2E41"/>
  <path d="M153.214 189.235L168.548 154.796C169.828 151.893 169.97 148.614 168.944 145.612C167.919 142.609 165.802 140.104 163.015 138.594L129.756 120.731L114.579 119.438L100.579 118.164L100.478 118.335C100.349 118.553 97.339 123.761 99.3737 129.471C100.917 133.802 104.932 137.185 111.306 139.526C126.184 144.989 143.37 149.659 150.069 151.413C150.365 151.489 150.642 151.627 150.881 151.817C151.12 152.008 151.316 152.247 151.456 152.519C151.597 152.788 151.68 153.083 151.702 153.385C151.723 153.688 151.681 153.992 151.579 154.277L137.334 186.333C137.185 186.74 137.132 187.175 137.177 187.606C137.223 188.036 137.367 188.45 137.598 188.816C137.829 189.182 138.141 189.491 138.509 189.717C138.878 189.943 139.293 190.082 139.724 190.122L150.368 190.898C150.459 190.906 150.549 190.911 150.638 190.911C151.183 190.911 151.717 190.752 152.174 190.455C152.631 190.157 152.992 189.734 153.214 189.235Z" fill="#2F2E41"/>
  <path d="M136.691 201.625L144.382 201.624L148.042 181.644L136.69 181.645L136.691 201.625Z" fill="#FFB8B8"/>
  <path d="M134.73 209.092L159.53 209.091V208.777C159.53 207.507 159.281 206.25 158.795 205.077C158.31 203.904 157.599 202.838 156.703 201.941C155.807 201.043 154.743 200.331 153.571 199.845C152.4 199.359 151.145 199.109 149.877 199.109H149.876L134.729 199.109L134.73 209.092Z" fill="#2F2E41"/>
  <path d="M147.568 191.12L162.901 156.681C164.182 153.778 164.323 150.499 163.298 147.497C162.273 144.494 160.156 141.989 157.369 140.479L124.109 122.616L108.932 121.323L97.9671 120.371L97.9686 120.22C97.8395 120.438 94.8294 125.646 96.8641 131.356C98.4075 135.687 99.2851 139.07 105.659 141.411C120.537 146.874 137.724 151.544 144.423 153.298C144.719 153.374 144.995 153.511 145.234 153.702C145.474 153.893 145.67 154.132 145.81 154.404C145.951 154.672 146.034 154.967 146.055 155.27C146.076 155.573 146.035 155.877 145.933 156.162L131.687 188.218C131.539 188.625 131.485 189.06 131.531 189.49C131.577 189.921 131.721 190.335 131.951 190.701C132.182 191.067 132.494 191.375 132.863 191.602C133.231 191.828 133.647 191.967 134.077 192.007L144.722 192.783C144.812 192.791 144.902 192.796 144.992 192.796C145.537 192.796 146.07 192.637 146.527 192.34C146.985 192.042 147.346 191.619 147.568 191.12Z" fill="#2F2E41"/>
  <path d="M137.949 42.7824C139.918 34.4902 134.803 26.1693 126.523 24.1973C118.244 22.2253 109.936 27.3488 107.967 35.6411C105.998 43.9333 111.114 52.2542 119.393 54.2262C127.672 56.1982 135.98 51.0746 137.949 42.7824Z" fill="#FFB8B8"/>
  <path d="M176.073 98.507C182.517 89.9228 187.611 80.4014 191.178 70.2736C191.384 69.6678 191.37 69.0082 191.136 68.4123C190.903 67.8163 190.466 67.3226 189.903 67.0191L167.854 55.1861C167.497 54.9932 167.101 54.8844 166.696 54.8679C166.291 54.8515 165.887 54.9278 165.516 55.0911C165.138 55.2556 164.803 55.5043 164.535 55.8184C164.268 56.1324 164.075 56.5035 163.972 56.9033C161.406 66.6627 156.582 75.68 149.89 83.2257C149.615 83.5329 149.413 83.8989 149.3 84.296C149.187 84.693 149.166 85.1107 149.239 85.5171C149.309 85.917 149.469 86.2957 149.707 86.6244C149.945 86.953 150.255 87.2229 150.612 87.4135L172.662 99.2466C173.226 99.5479 173.878 99.6388 174.503 99.5034C175.128 99.3679 175.684 99.0149 176.073 98.507Z" fill="#CCCCCC"/>
  <path d="M174.569 97.3744C174.45 97.5226 174.284 97.6248 174.098 97.6632C173.912 97.7016 173.719 97.6739 173.551 97.5849L151.502 85.7516C151.394 85.6957 151.302 85.6157 151.231 85.5179C151.16 85.4201 151.112 85.3072 151.092 85.1879C151.069 85.0621 151.076 84.9326 151.111 84.8096C151.146 84.6866 151.21 84.5735 151.296 84.4792C158.185 76.7112 163.151 67.4282 165.793 57.3811C165.823 57.257 165.882 57.1416 165.965 57.0441C166.047 56.9465 166.151 56.8694 166.268 56.8188C166.379 56.7693 166.499 56.7462 166.62 56.7512C166.741 56.7562 166.859 56.7892 166.965 56.8476L189.014 68.6806C189.181 68.7709 189.311 68.9169 189.382 69.0933C189.453 69.2697 189.46 69.4653 189.403 69.6464C185.899 79.5929 180.897 88.9438 174.569 97.3744Z" fill="white"/>
  <path d="M166.855 68.0902L182.063 77.0182C183.576 77.9065 184.946 75.5531 183.435 74.6662L168.227 65.7382C166.714 64.8499 165.344 67.2033 166.855 68.0902Z" fill="#CCCCCC"/>
  <path d="M164.135 73.0839L179.343 82.0119C180.856 82.9001 182.227 80.5468 180.716 79.6599L165.508 70.7319C163.995 69.8436 162.624 72.197 164.135 73.0839Z" fill="#CCCCCC"/>
  <path d="M161.998 78.0583L175.829 86.282C177.205 87.1002 178.677 85.4086 177.303 84.5917L163.472 76.368C162.096 75.5498 160.624 77.2414 161.998 78.0583Z" fill="#CCCCCC"/>
  <path d="M157.789 83.0714L172.997 91.9994C174.51 92.8877 175.881 90.5343 174.37 89.6474L159.162 80.7194C157.649 79.8311 156.278 82.1845 157.789 83.0714Z" fill="#CCCCCC"/>
  <path d="M131.843 121.981L101.35 121.799L101.342 121.581C100.76 106.258 102.63 92.377 107.058 79.146C107.121 78.6508 107.188 78.1215 107.255 77.6019C108.011 71.6824 108.612 66.9826 114.232 65.2323C113.763 64.6087 113.487 63.8616 113.438 63.083C113.402 62.5655 113.47 62.0462 113.637 61.5551C113.804 61.0641 114.066 60.6113 114.41 60.223C114.738 59.848 115.138 59.5422 115.586 59.3235C116.033 59.1047 116.52 58.9774 117.017 58.9489L127.871 58.5787C128.441 58.5748 128.996 58.7633 129.447 59.1138C130.273 59.7286 130.854 60.6179 131.085 61.6226C131.316 62.6272 131.183 63.6815 130.709 64.5965C130.581 64.8515 130.532 64.9676 130.513 65.0182C130.899 67.0429 132.044 69.448 133.255 71.9932C134.99 75.6374 136.956 79.7676 137.462 84.1863C137.735 86.5721 137.621 88.9864 137.126 91.336C136.899 92.6021 136.847 93.8933 136.971 95.1735C137.07 97.0719 137.164 98.8643 136.092 100.598C135.819 101.068 135.507 101.569 135.14 102.124L133.633 105.732L131.843 121.981Z" fill="#FFD113"/>
  <path d="M86.083 143.426V81.0211C86.0853 78.9876 86.8929 77.038 88.3285 75.6001C89.7642 74.1622 91.7107 73.3534 93.741 73.3511H95.859C97.8894 73.3534 99.8359 74.1622 101.272 75.6001C102.707 77.038 103.515 78.9876 103.517 81.0211V143.426C103.515 145.459 102.707 147.409 101.272 148.847C99.8359 150.284 97.8894 151.093 95.859 151.096H93.741C91.7107 151.093 89.7642 150.284 88.3285 148.847C86.8929 147.409 86.0853 145.459 86.083 143.426Z" fill="#3F3D56"/>
  <path d="M167.854 87.2495C167.636 87.524 167.439 87.8152 167.265 88.1207L135.918 90.4131L131.619 84.093L121.248 89.3449L127.773 101.274C128.3 102.238 129.125 103.004 130.125 103.458C131.124 103.913 132.243 104.03 133.314 103.793L168.229 96.0619C169.166 97.0372 170.376 97.7038 171.7 97.973C173.024 98.2423 174.399 98.1014 175.641 97.5693C176.883 97.0371 177.934 96.1387 178.654 94.9938C179.374 93.8488 179.728 92.5114 179.671 91.1596C179.613 89.8077 179.146 88.5054 178.332 87.4259C177.517 86.3464 176.394 85.5409 175.111 85.1164C173.828 84.6919 172.447 84.6687 171.151 85.0497C169.854 85.4308 168.705 86.198 167.854 87.2495Z" fill="#FFB6B6"/>
  <path d="M134.864 90.5535L122.049 97.1414C121.684 97.3288 121.284 97.4353 120.874 97.4537C120.465 97.472 120.056 97.4018 119.677 97.2478C119.297 97.0937 118.954 96.8595 118.673 96.5611C118.392 96.2626 118.178 95.9069 118.046 95.5182L113.432 81.8982C112.485 80.0285 112.317 77.8595 112.963 75.8657C113.609 73.8719 115.018 72.2156 116.88 71.259C111.2 74.1793 123.03 65.8841 127.545 74.6946L135.88 86.3498C136.119 86.6836 136.283 87.0649 136.361 87.4679C136.439 87.8708 136.429 88.2859 136.333 88.6848C136.236 89.0838 136.055 89.4572 135.802 89.7797C135.548 90.1021 135.228 90.3661 134.864 90.5535Z" fill="#FFD113"/>
  <path d="M115.997 54.2224C115.07 54.2224 114.047 53.7747 112.893 52.8676C109.498 50.1975 107.071 46.4856 105.985 42.3013C104.899 38.117 105.213 33.6913 106.88 29.7032C107.719 27.6962 109.288 24.9683 111.999 23.3697C113.947 22.221 116.236 21.806 118.229 21.5072C119.954 21.2483 121.7 21.0421 123.42 20.8954C125.475 20.7194 127.848 20.6006 130.013 21.4243C131.599 22.0281 132.949 23.0943 134.255 24.1255C134.71 24.4846 135.181 24.8566 135.652 25.2006C136.794 26.0929 138.111 26.7336 139.517 27.0808C139.814 27.1425 140.094 27.2671 140.339 27.4465C140.583 27.6258 140.786 27.8557 140.934 28.1204C141.086 28.3896 141.177 28.6881 141.203 28.9958C141.229 29.3035 141.189 29.6132 141.086 29.904C140.882 30.4759 140.698 30.9915 141.07 31.5501C141.208 31.7469 141.392 31.9069 141.606 32.016C141.819 32.1251 142.057 32.1801 142.297 32.1761C142.423 32.174 142.548 32.2037 142.661 32.2624C142.773 32.3211 142.869 32.4069 142.94 32.5122C143.011 32.6165 143.057 32.7368 143.071 32.8626C143.086 32.9884 143.07 33.1159 143.024 33.2339L142.964 33.3878C143.124 33.4027 143.277 33.4561 143.411 33.5436C143.546 33.6312 143.657 33.75 143.735 33.89C143.851 34.0894 143.896 34.3226 143.862 34.5511C143.828 34.7795 143.718 34.9895 143.549 35.1465C142.174 36.4574 140.459 37.3561 138.6 37.7405C137.328 37.9904 136.019 37.9874 134.748 37.7316L134.543 37.6917L134.568 37.4647C129.426 35.6279 124.785 38.7451 122.139 42.3086L121.757 42.067C121.822 41.9342 121.861 41.7894 121.869 41.6415C121.877 41.4935 121.856 41.3454 121.805 41.206C121.752 41.0388 121.666 40.8837 121.553 40.7496C121.44 40.6156 121.301 40.5052 121.146 40.4248C120.83 40.2946 120.484 40.2608 120.15 40.3277C119.815 40.3945 119.508 40.559 119.267 40.8004C119.022 41.0581 118.832 41.3642 118.711 41.6992C118.591 42.0342 118.541 42.3908 118.565 42.7462C118.634 43.4994 118.826 44.2363 119.132 44.9278C119.256 45.2586 119.385 45.6008 119.49 45.9457C120.075 47.9052 119.919 50.0121 119.051 51.8634C118.651 52.708 117.926 53.7848 116.75 54.1187C116.505 54.188 116.252 54.2229 115.997 54.2224Z" fill="#2F2E41"/>
  <path d="M366.46 210H0.539725C0.396859 210 0.259989 209.942 0.159113 209.841C0.0582374 209.74 0.00158691 209.603 0.00158691 209.46C0.00158691 209.316 0.0582374 209.179 0.159113 209.078C0.259989 208.976 0.396859 208.919 0.539725 208.919H366.46C366.603 208.919 366.741 208.976 366.842 209.077C366.943 209.179 367 209.316 367 209.46C367 209.603 366.943 209.74 366.842 209.842C366.741 209.943 366.603 210 366.46 210Z" fill="#CACACA"/>
  </g>
  <defs>
  <clipPath id="clip0_165_178">
  <rect width="367" height="210" fill="white"/>
  </clipPath>
  </defs>
  </svg>
  